<?xml version="1.0" standalone="no"?>
<!DOCTYPE svg PUBLIC "-//W3C//DTD SVG 20010904//EN"
 "http://www.w3.org/TR/2001/REC-SVG-20010904/DTD/svg10.dtd">
<svg version="1.0" xmlns="http://www.w3.org/2000/svg"
 width="1200.000000pt" height="896.000000pt" viewBox="0 0 1200.000000 896.000000"
 preserveAspectRatio="xMidYMid meet">

<g transform="translate(0.000000,896.000000) scale(0.100000,-0.100000)"
fill="#000000" stroke="none">
<path d="M7145 8110 c-159 -10 -254 -40 -373 -120 -93 -62 -62 -31 -1316
-1315 -237 -242 -579 -591 -760 -775 -182 -184 -484 -490 -671 -680 -187 -190
-628 -633 -980 -985 -352 -352 -597 -595 -544 -540 142 148 403 417 1119 1151
124 127 18 23 -234 -230 -850 -853 -1298 -1316 -1349 -1393 -58 -88 -87 -164
-94 -254 -7 -79 6 -138 48 -224 16 -33 29 -70 29 -83 0 -13 5 -32 10 -43 16
-30 28 -107 18 -117 -13 -13 71 -122 138 -176 69 -57 211 -142 439 -264 94
-50 267 -143 385 -206 118 -64 264 -142 323 -174 60 -31 235 -125 390 -207
552 -295 716 -381 1012 -530 388 -196 459 -218 690 -218 158 1 248 22 380 88
154 77 265 181 530 495 89 107 204 239 410 475 125 144 362 418 566 656 41 47
151 173 245 280 93 107 255 293 359 414 104 121 264 306 355 410 91 105 201
233 245 285 43 52 113 133 155 180 42 47 112 128 155 180 44 52 127 149 185
215 168 191 358 410 450 520 47 56 182 214 300 351 236 272 437 508 543 636
63 77 109 156 127 218 l7 26 -63 -4 c-36 -3 -64 0 -64 5 0 5 25 43 55 83 91
122 110 169 110 275 0 80 -4 97 -30 150 -59 117 -179 209 -407 312 -117 53
-599 262 -1638 710 -696 301 -704 304 -718 298 -7 -3 -11 -1 -7 4 5 10 -165
80 -243 101 -24 6 -53 8 -65 5 -18 -5 -19 -4 -7 5 12 9 5 10 -30 6 -32 -4 -39
-3 -25 3 24 11 19 11 -160 1z m25 -109 c0 -5 -10 -7 -22 -4 -22 5 -22 5 -6
-12 15 -17 36 -20 98 -15 59 5 211 -98 254 -172 39 -68 39 -139 1 -156 -43
-20 -51 -15 -47 24 14 115 -149 263 -323 295 -33 6 -61 12 -63 14 -2 1 4 10
13 19 17 17 95 23 95 7z m-149 -50 c-57 -68 -59 -69 -129 -63 -49 3 -60 7 -52
17 19 22 175 91 213 94 5 1 -9 -21 -32 -48z m719 9 c8 -5 11 -10 5 -10 -5 0
-17 5 -25 10 -8 5 -10 10 -5 10 6 0 17 -5 25 -10z m-649 -56 l21 -22 -36 8
c-20 4 -36 5 -36 2 0 -3 -5 -1 -11 5 -6 6 -8 16 -5 21 10 17 45 9 67 -14z
m414 -44 c10 -11 16 -20 13 -20 -3 0 -13 9 -23 20 -10 11 -16 20 -13 20 3 0
13 -9 23 -20z m173 -12 c-2 -6 -10 -14 -16 -16 -7 -2 -10 2 -6 12 7 18 28 22
22 4z m-133 -48 c9 -16 13 -30 11 -30 -3 0 -12 14 -21 30 -9 17 -13 30 -11 30
3 0 12 -13 21 -30z m-790 -40 c10 -32 -3 -42 -31 -24 -31 21 -31 44 0 44 16 0
27 -7 31 -20z m1150 -20 c3 -5 -1 -10 -9 -10 -9 0 -16 5 -16 10 0 6 4 10 9 10
6 0 13 -4 16 -10z m-1240 -20 c-3 -5 -12 -10 -18 -10 -7 0 -6 4 3 10 19 12 23
12 15 0z m161 -92 c-46 -99 -48 -107 -27 -133 10 -14 21 -21 25 -17 4 3 11 1
15 -6 5 -9 46 -15 122 -20 l114 -6 -100 -12 c-142 -17 -175 -17 -175 1 0 9 -6
12 -15 9 -8 -4 -12 -11 -8 -17 3 -6 1 -7 -5 -3 -7 4 -12 13 -12 21 0 8 -24 20
-57 30 -72 21 -203 81 -203 93 0 13 70 72 87 72 8 0 12 4 9 8 -2 4 0 14 5 22
8 11 12 12 16 3 3 -10 8 -9 20 2 17 17 37 20 28 4 -4 -6 1 -17 11 -24 16 -12
16 -14 4 -15 -9 0 -22 6 -29 13 -9 8 -12 8 -7 0 3 -6 0 -14 -6 -16 -7 -3 -3
-6 8 -6 24 -1 51 -27 40 -38 -4 -4 -11 -1 -17 7 -7 12 -10 13 -18 1 -7 -10
-11 -9 -22 6 -8 10 -23 19 -34 18 -22 0 -62 -31 -53 -41 4 -3 16 4 28 16 12
12 25 19 28 15 4 -3 0 -10 -8 -16 -11 -7 -8 -8 13 -5 28 5 38 -10 12 -20 -8
-4 -15 -14 -15 -23 0 -14 2 -14 10 -1 9 13 12 13 21 -3 11 -19 67 -47 93 -47
8 0 36 44 67 108 31 63 54 100 56 90 2 -9 -7 -41 -21 -70z m940 56 c-3 -9 -6
-20 -6 -25 0 -6 -5 -7 -10 -4 -6 3 -13 -1 -16 -10 -4 -9 -10 -13 -13 -8 -8 12
-128 41 -139 34 -5 -3 -21 -27 -36 -52 -14 -26 -51 -69 -82 -97 -55 -51 -65
-77 -34 -92 8 -4 25 -12 38 -19 13 -6 27 -9 32 -6 6 4 10 2 10 -4 0 -34 -143
23 -153 60 -4 15 -11 18 -36 13 -45 -9 -41 20 5 42 20 10 54 35 74 56 32 33
43 39 71 36 l34 -4 -59 -57 c-33 -31 -54 -57 -47 -57 17 0 151 135 151 152 0
20 32 48 55 48 12 0 42 -7 65 -15 47 -17 80 -12 80 11 0 8 5 14 11 14 6 0 8
-7 5 -16z m-1056 -14 c0 -5 -7 -7 -15 -4 -8 4 -12 10 -9 15 6 11 24 2 24 -11z
m80 -27 c-1 -10 -39 -60 -40 -51 0 14 23 58 32 58 4 0 8 -3 8 -7z m63 -57 c3
-8 -2 -16 -14 -19 -11 -3 -19 0 -19 7 0 26 24 35 33 12z m972 4 c-3 -5 -12
-10 -18 -10 -7 0 -6 4 3 10 19 12 23 12 15 0z m-1162 -16 c8 -8 -3 -34 -14
-34 -5 0 -9 9 -9 20 0 19 11 26 23 14z m76 -32 c-6 -18 -15 -32 -20 -32 -8 0
3 39 17 62 12 19 14 0 3 -30z m821 19 c0 -11 -5 -23 -12 -27 -8 -5 -9 -2 -5 9
3 10 2 17 -4 17 -6 0 -7 5 -4 10 10 17 25 11 25 -9z m-740 -26 c5 3 12 0 15
-6 5 -7 1 -10 -10 -7 -10 1 -20 9 -21 16 -1 7 0 8 3 2 2 -5 9 -8 13 -5z m446
-60 c14 -13 13 -15 -10 -15 -37 0 -43 21 -8 29 2 1 10 -6 18 -14z m409 -10 c0
-29 -20 -28 -21 0 -1 16 3 24 10 22 6 -2 11 -12 11 -22z m169 -28 c-6 -17 -60
-49 -106 -63 -31 -10 -38 -9 -43 4 -7 18 -7 17 28 26 22 5 27 4 21 -6 -4 -7 2
-5 13 5 11 9 27 17 36 17 9 0 22 9 29 19 13 21 30 19 22 -2z m-608 -4 c22 3
57 9 78 13 34 6 39 5 33 -9 -5 -12 -1 -17 14 -17 39 0 32 -29 -23 -98 -81
-101 -120 -161 -112 -174 4 -6 3 -8 -4 -4 -11 6 -88 -90 -186 -234 -58 -84
-58 -85 -53 -144 5 -59 5 -59 -54 -148 -36 -53 -64 -86 -71 -82 -7 4 -8 3 -4
-4 4 -7 -5 -28 -20 -47 l-26 -35 23 0 c36 0 69 -11 69 -22 0 -6 -7 -7 -16 -4
-16 6 -44 -9 -44 -24 0 -4 21 -13 46 -20 47 -14 63 -7 64 28 0 6 7 12 15 12
18 0 20 17 3 23 -10 3 -9 13 4 40 29 60 58 44 33 -17 -9 -20 -13 -41 -10 -46
3 -4 24 -11 48 -15 23 -4 45 -9 50 -12 4 -2 -9 -24 -29 -49 -40 -48 -58 -50
-99 -14 -15 14 -25 16 -37 9 -12 -7 -31 -6 -55 0 -54 15 -95 13 -123 -5 -14
-9 -5 2 19 24 44 38 44 40 32 71 -9 21 -17 28 -25 22 -16 -14 -51 -75 -37 -67
6 4 11 2 11 -3 0 -6 -4 -11 -10 -11 -5 0 -10 -5 -10 -11 0 -12 -55 -61 -81
-71 -14 -5 -17 -3 -14 13 2 10 1 19 -3 19 -16 0 -93 -58 -82 -62 8 -2 6 -9 -6
-18 -11 -9 -15 -10 -10 -2 4 6 3 12 -1 12 -5 0 -9 11 -8 24 0 26 55 96 75 96
6 0 8 5 5 10 -3 6 1 10 10 10 9 0 13 5 10 10 -3 6 -2 10 3 10 12 0 62 47 56
52 -2 3 24 19 58 37 76 39 109 65 112 88 2 10 7 18 12 18 17 0 34 16 34 31 0
8 -4 13 -9 10 -5 -4 -11 -1 -13 6 -3 8 -23 -4 -54 -31 -50 -44 -145 -94 -199
-105 -28 -5 -28 -5 -7 6 42 21 22 25 -58 9 -68 -13 -80 -19 -76 -33 3 -15 -3
-18 -32 -19 -85 -3 -210 -1 -252 4 -25 3 -51 5 -58 6 -17 1 14 62 77 149 131
185 357 523 406 607 47 82 99 143 111 131 6 -6 9 -17 6 -24 -2 -7 5 -12 18
-12 16 0 20 4 15 19 -3 11 -1 22 5 26 5 3 10 1 10 -4 0 -14 37 -14 45 0 5 7
34 7 88 2 97 -9 212 -7 232 5 9 5 -10 8 -47 8 -175 1 -234 5 -208 16 14 6 80
11 147 12 98 1 124 4 128 16 5 12 7 12 15 1 5 -10 20 -12 46 -8z m-848 -58
c17 -3 32 -10 32 -14 0 -5 32 -13 72 -20 81 -13 98 -23 98 -56 0 -18 -23 -36
-125 -94 -69 -39 -128 -71 -133 -71 -19 0 -41 -58 -36 -98 4 -33 -3 -57 -43
-139 -27 -54 -59 -116 -73 -137 -13 -22 -18 -36 -12 -32 7 4 2 -9 -10 -30 -12
-20 -30 -39 -40 -42 -15 -4 -16 -7 -6 -20 11 -13 9 -15 -19 -9 -37 7 -40 3
-18 -20 34 -34 -18 -44 -82 -17 -79 35 -84 37 -74 47 7 7 4 15 -7 23 -15 12
-14 14 13 15 l30 1 -27 11 c-16 6 -28 17 -28 24 0 13 39 39 53 35 4 -1 7 3 7
9 0 5 5 7 12 3 8 -5 9 -2 5 10 -5 14 -3 17 8 12 9 -3 15 0 15 8 0 7 10 24 23
38 51 58 67 79 67 92 0 8 5 18 10 21 6 3 10 14 10 24 0 9 38 62 85 117 47 54
93 113 101 131 23 47 41 59 49 34 6 -20 7 -20 33 -3 15 9 35 24 46 34 17 15
17 18 3 33 -9 8 -30 18 -46 21 -36 8 -40 21 -8 27 12 2 -2 5 -32 6 l-54 1 23
25 c14 15 27 21 34 16 6 -5 26 -12 44 -16z m1272 8 c12 -11 -30 -23 -70 -21
-33 2 -46 8 -48 20 -3 15 4 16 55 11 32 -3 60 -8 63 -10z m36 -41 c11 -7 11
-30 -1 -69 -5 -15 -3 -23 4 -23 6 0 2 -9 -8 -19 -11 -11 -23 -37 -26 -58 -4
-21 -16 -68 -28 -105 -17 -56 -30 -77 -75 -120 -40 -38 -49 -44 -34 -21 12 17
22 39 22 50 0 10 8 32 18 48 10 17 31 65 47 108 15 43 37 84 48 92 19 13 18
14 -14 28 -28 11 -36 11 -47 0 -7 -7 -18 -13 -23 -13 -5 0 -26 -15 -46 -34
-54 -48 -75 -56 -135 -55 l-53 1 53 13 c29 7 68 19 85 27 l32 13 -40 5 c-35 4
-40 8 -38 28 2 13 -1 21 -6 18 -5 -3 -12 2 -15 11 -4 9 -1 20 6 25 9 5 7 8 -7
9 -12 0 -7 4 14 11 43 12 61 5 61 -27 0 -14 4 -25 9 -25 5 0 7 9 4 20 -8 30
21 35 64 10 l38 -22 -29 25 -29 25 49 16 c55 17 84 19 100 8z m604 -48 c0 -8
-7 -14 -16 -14 -12 0 -15 -6 -11 -22 7 -25 -8 -48 -32 -48 -13 1 -13 3 3 15
12 9 15 15 7 15 -11 0 -11 3 -1 15 6 8 9 23 5 34 -4 14 -1 21 12 23 23 6 33 0
33 -18z m60 -13 c-1 -8 -70 -40 -70 -32 0 21 32 49 50 44 11 -3 20 -8 20 -12z
m-749 -65 c5 3 9 -2 9 -12 0 -13 -3 -14 -15 -4 -8 7 -15 18 -14 24 0 7 2 6 6
-2 2 -6 9 -10 14 -6z m-7 -63 c-6 -20 -32 -39 -41 -29 -10 9 9 45 25 49 22 4
22 5 16 -20z m1006 17 c0 -5 -2 -10 -4 -10 -3 0 -8 5 -11 10 -3 6 -1 10 4 10
6 0 11 -4 11 -10z m-1270 -50 c0 -5 -2 -10 -4 -10 -3 0 -8 5 -11 10 -3 6 -1
10 4 10 6 0 11 -4 11 -10z m1003 -41 c32 -14 35 -33 7 -56 -11 -10 -20 -22
-20 -28 0 -5 -5 -17 -10 -25 -7 -12 -13 -11 -34 9 -27 25 -108 46 -114 30 -2
-5 -16 2 -30 17 -25 25 -26 27 -8 39 10 8 15 18 11 24 -3 6 -4 15 -1 19 6 10
158 -12 199 -29z m-591 4 c-5 -10 -17 -34 -26 -54 -17 -35 -18 -36 -50 -27
-29 9 -32 13 -23 32 8 17 17 21 44 18 24 -3 33 0 33 10 0 8 5 19 12 26 17 17
20 15 10 -5z m-202 -62 c0 -41 -34 -56 -36 -16 -2 18 3 25 17 25 10 0 19 -4
19 -9z m972 -5 c25 -8 49 -11 53 -8 4 4 3 -7 -1 -23 -4 -17 -3 -27 1 -23 4 4
25 -2 47 -13 31 -16 38 -24 33 -39 -5 -15 -2 -20 12 -20 17 0 76 -39 60 -40
-4 0 -26 9 -48 21 -22 11 -59 21 -82 22 -23 2 -63 14 -89 27 -44 22 -48 26
-48 60 0 29 6 51 14 50 1 0 22 -7 48 -14z m1138 -22 l25 -15 -25 7 c-14 3 -29
10 -34 15 -16 14 6 10 34 -7z m-1510 -43 c0 -23 35 -51 63 -51 10 0 32 9 48
21 18 13 36 18 49 14 19 -6 19 -7 3 -33 l-17 -27 25 20 c38 31 69 47 69 35 0
-18 -51 -60 -84 -68 -18 -5 -37 -20 -46 -36 -14 -25 -13 -28 3 -40 26 -20 21
-30 -28 -74 -48 -42 -104 -62 -174 -62 l-41 0 22 26 c15 16 22 35 20 53 -3 22
2 30 20 35 21 6 20 8 -15 20 -53 19 -56 25 -17 32 30 7 32 8 15 21 -17 12 -16
13 11 13 17 0 35 -5 41 -11 16 -16 43 -3 43 20 0 19 -32 46 -42 36 -3 -3 -13
5 -24 16 -12 14 -15 23 -8 26 6 2 20 10 30 18 26 20 34 18 34 -4z m-100 -17
c0 -2 -9 -4 -20 -4 -11 0 -20 4 -20 9 0 5 9 7 20 4 11 -3 20 -7 20 -9z m1580
6 c19 -6 105 -26 190 -44 161 -35 266 -73 276 -101 9 -21 -11 -87 -34 -114
-16 -18 -22 -19 -70 -9 -38 8 -71 8 -121 0 -64 -11 -71 -10 -117 13 -52 26
-159 132 -184 181 -8 16 -23 41 -33 57 l-18 27 38 0 c21 0 54 -5 73 -10z
m-1482 -79 c4 -11 -2 -12 -24 -7 -42 11 -48 21 -12 21 18 0 33 -6 36 -14z
m-2268 -11 c0 -5 -4 -10 -10 -10 -5 0 -10 5 -10 10 0 6 5 10 10 10 6 0 10 -4
10 -10z m3025 -10 c3 -6 -1 -7 -9 -4 -18 7 -21 14 -7 14 6 0 13 -4 16 -10z
m-355 -20 c0 -5 -7 -7 -15 -4 -8 4 -15 8 -15 10 0 2 7 4 15 4 8 0 15 -4 15
-10z m-2620 -40 c0 -13 -11 -13 -30 0 -12 8 -11 10 8 10 12 0 22 -4 22 -10z
m-105 -10 c3 -5 1 -10 -4 -10 -6 0 -11 5 -11 10 0 6 2 10 4 10 3 0 8 -4 11
-10z m4392 -52 c50 -53 67 -96 67 -164 -1 -108 -17 -132 -385 -555 -103 -118
-193 -220 -202 -227 -13 -11 -24 -6 -69 30 -29 24 -79 62 -110 86 l-57 42 191
195 192 195 55 0 c74 0 119 14 177 53 82 55 108 141 64 214 -18 31 -19 40 -9
72 16 48 38 91 47 91 5 0 22 -15 39 -32z m194 -54 c12 -25 19 -47 17 -50 -2
-2 -14 19 -25 46 -12 28 -19 50 -17 50 3 0 14 -21 25 -46z m-4725 20 c-3 -8
-2 -12 3 -9 5 3 12 1 15 -4 8 -13 -9 -22 -27 -15 -16 6 -12 44 5 44 6 0 7 -7
4 -16z m163 -53 c12 -8 9 -15 -12 -41 -24 -28 -25 -33 -12 -46 20 -21 20 -20
-24 -84 -22 -31 -41 -63 -43 -70 -2 -7 -9 -20 -16 -29 -7 -9 -21 -27 -32 -41
-10 -14 -22 -22 -26 -18 -4 5 -1 16 8 25 8 10 24 34 35 53 11 19 36 60 56 92
29 44 33 57 22 62 -11 4 -39 -30 -96 -115 -44 -67 -83 -119 -85 -116 -3 3 31
60 76 128 70 107 79 125 66 135 -24 17 -19 37 12 56 31 19 51 21 71 9z m149
-88 c9 -9 7 -11 -10 -9 -45 6 -108 45 -108 67 0 9 98 -39 118 -58z m-288 49
c0 -5 -11 -22 -25 -38 l-26 -29 11 29 c6 16 13 33 16 37 7 11 24 12 24 1z
m4206 -47 c5 -27 11 -34 23 -31 49 14 81 17 81 7 0 -5 -21 -13 -46 -17 l-45
-6 6 -39 c8 -48 -11 -53 -23 -6 -9 33 -14 35 -74 23 -16 -3 -28 -2 -28 3 0 10
35 21 68 21 24 0 26 7 13 43 -9 24 -6 37 10 37 5 0 11 -16 15 -35z m-3329 -41
c-3 -3 -12 -4 -19 -1 -8 3 -5 6 6 6 11 1 17 -2 13 -5z m3070 -16 c-3 -8 -6 -5
-6 6 -1 11 2 17 5 13 3 -3 4 -12 1 -19z m-3110 6 c-3 -3 -12 -4 -19 -1 -8 3
-5 6 6 6 11 1 17 -2 13 -5z m2051 -50 c43 -7 59 -24 21 -24 -35 0 -109 22
-109 32 0 6 10 8 23 4 12 -3 41 -9 65 -12z m-1652 -10 c-3 -9 -6 -18 -6 -20 0
-2 -7 -4 -15 -4 -13 0 -14 4 -5 20 13 24 35 27 26 4z m-716 -20 c23 -5 23 -6
6 -16 -10 -6 -39 -12 -65 -14 -25 -1 -40 0 -33 2 6 3 12 11 12 17 0 14 43 19
80 11z m2339 -8 c39 -11 42 -14 26 -23 -27 -15 -112 8 -100 28 8 12 21 11 74
-5z m-2509 -67 c0 -5 -11 -14 -25 -19 -14 -5 -28 -16 -31 -25 -3 -8 -10 -12
-15 -9 -5 3 -7 9 -4 14 3 5 0 12 -6 16 -7 4 -9 3 -6 -2 3 -6 2 -16 -3 -23 -6
-11 -10 -9 -19 7 -12 22 -9 25 34 47 23 12 75 7 75 -6z m2460 12 c0 -5 -7 -11
-15 -15 -15 -5 -20 5 -8 17 9 10 23 9 23 -2z m-2590 -32 c0 -5 -9 -9 -20 -9
-22 0 -27 16 -7 23 15 5 27 -1 27 -14z m1354 -4 c7 -20 -21 -32 -37 -16 -9 9
-8 14 3 21 21 13 27 12 34 -5z m-334 -10 c0 -3 -7 -16 -16 -29 -14 -23 -14
-25 5 -31 12 -3 21 -10 21 -15 0 -13 -42 -40 -62 -40 -16 0 -17 6 -12 43 7 44
28 77 51 77 7 0 13 -2 13 -5z m-1020 -15 c0 -5 -2 -10 -4 -10 -3 0 -8 5 -11
10 -3 6 -1 10 4 10 6 0 11 -4 11 -10z m828 -8 c17 -3 21 -9 17 -23 -5 -14 0
-20 19 -25 14 -3 26 -10 26 -15 0 -9 -34 -4 -78 13 -13 4 -29 5 -35 1 -7 -4
-20 -6 -31 -4 -11 1 -16 -2 -12 -8 5 -7 -7 -11 -33 -11 -23 0 -41 3 -41 8 0
15 115 82 130 76 8 -4 25 -9 38 -12z m458 -14 c-10 -6 -20 -7 -24 -3 -9 8 20
25 31 18 5 -3 2 -10 -7 -15z m-1496 -25 l25 -14 -25 7 c-14 4 -36 13 -50 21
l-25 14 25 -7 c14 -4 36 -13 50 -21z m3677 -39 c2 -5 -23 -37 -55 -72 -32 -34
-56 -62 -53 -62 2 0 1 -3 -2 -6 -4 -4 -25 6 -47 21 -44 30 -53 43 -17 23 24
-13 53 -20 43 -10 -9 8 106 123 118 119 5 -2 11 -8 13 -13z m-3524 -9 c15 0
27 -3 27 -7 0 -5 13 -8 29 -8 17 0 33 -4 36 -10 3 -5 19 -10 35 -10 40 0 45
-15 13 -39 -16 -11 -35 -26 -43 -33 -8 -7 -19 -12 -24 -10 -4 2 -6 -5 -2 -15
5 -16 4 -15 -9 1 -8 11 -15 14 -15 8 0 -7 -11 -12 -26 -12 -40 0 -164 31 -164
40 0 5 -8 7 -17 3 -15 -5 -14 -3 2 10 11 9 26 17 33 17 7 0 10 5 7 10 -3 6 3
10 15 10 12 0 19 4 16 9 -3 4 25 7 62 5 l67 -3 -45 13 c-25 7 -56 18 -70 24
-23 11 -22 12 10 5 19 -4 47 -7 63 -8z m673 -24 c-9 -10 -16 -23 -16 -30 0 -7
-4 -9 -10 -6 -5 3 -10 -1 -10 -9 0 -10 -9 -16 -24 -16 -24 0 -56 -23 -56 -41
0 -5 -7 -9 -16 -9 -21 0 27 58 92 112 46 38 75 37 40 -1z m1726 20 c4 -3 -3
-6 -15 -7 -12 0 -28 -2 -36 -5 -7 -2 -15 4 -16 14 -3 16 1 17 28 12 18 -4 35
-10 39 -14z m-1179 -8 c-7 -2 -13 -9 -13 -14 0 -6 4 -7 10 -4 6 3 7 -1 4 -10
-4 -9 -13 -14 -21 -11 -8 3 -17 6 -20 6 -4 0 2 9 12 20 10 11 23 20 29 19 6 0
6 -3 -1 -6z m-669 -28 c-3 -8 -14 -17 -25 -20 -10 -3 -27 -18 -38 -31 -11 -14
-27 -24 -35 -22 -19 4 -12 13 37 56 40 34 70 43 61 17z m343 2 c7 -5 11 -13 8
-17 -3 -5 3 -16 12 -26 16 -16 15 -18 -12 -40 -45 -36 -58 -37 -111 -10 -27
14 -42 26 -33 26 9 0 30 -7 45 -15 28 -14 30 -13 55 13 l26 27 -38 19 c-22 10
-39 22 -39 26 0 11 72 9 87 -3z m1473 -51 c-53 -68 -125 -131 -265 -234 -74
-55 -89 -62 -112 -55 l-26 9 46 47 c24 26 51 47 58 47 8 0 29 14 48 30 18 17
37 30 41 30 4 0 15 16 24 35 11 21 40 50 77 75 53 37 132 77 152 79 4 1 -15
-28 -43 -63z m-1580 40 c0 -3 -4 -8 -10 -11 -5 -3 -10 -1 -10 4 0 6 5 11 10
11 6 0 10 -2 10 -4z m2620 -1 c0 -2 -6 -8 -13 -14 -10 -8 -14 -7 -14 2 0 8 6
14 14 14 7 0 13 -1 13 -2z m-3887 -19 c3 -8 -1 -17 -9 -20 -9 -3 -12 -1 -9 4
3 6 -1 10 -10 10 -9 0 -13 5 -10 10 9 15 32 12 38 -4z m679 -32 c-2 -13 -8
-21 -13 -18 -5 3 -6 -1 -3 -9 3 -8 -2 -17 -11 -21 -13 -5 -15 -1 -10 17 4 12
11 26 16 32 5 5 9 18 9 30 0 14 3 16 9 7 4 -7 6 -24 3 -38z m563 26 c8 -13
-15 -13 -35 0 -12 8 -11 10 7 10 12 0 25 -4 28 -10z m95 -10 c0 -12 -26 -19
-49 -13 -20 5 -20 6 -5 18 18 12 54 9 54 -5z m2327 -144 c19 -6 46 6 43 19 -4
15 42 56 56 51 16 -6 59 18 59 32 0 10 17 3 35 -14 10 -10 12 -19 5 -28 -6 -7
-25 -33 -43 -56 -36 -49 -38 -70 -4 -85 26 -12 30 -28 5 -23 -10 2 -23 -3 -29
-11 -16 -21 -71 -17 -132 9 -29 12 -52 25 -52 27 0 3 10 13 21 22 21 17 21 17
-43 59 -35 23 -79 58 -98 77 -35 36 -34 36 62 -18 53 -31 105 -58 115 -61z
m-2562 74 c3 -5 1 -10 -4 -10 -6 0 -11 5 -11 10 0 6 2 10 4 10 3 0 8 -4 11
-10z m91 -22 c40 -31 46 -41 27 -52 -11 -6 -18 -5 -21 2 -2 7 -8 12 -13 12 -6
0 -7 -5 -3 -12 5 -8 2 -9 -10 -5 -10 4 -29 10 -42 13 -13 3 -24 12 -24 20 0
19 16 18 24 -1 3 -8 12 -15 20 -15 18 0 29 27 14 36 -7 4 -8 3 -4 -4 4 -7 1
-12 -6 -12 -8 0 -14 9 -15 20 -2 26 17 25 53 -2z m-1527 -34 c53 -26 76 -33
84 -25 21 21 48 11 68 -23 21 -36 39 -45 166 -86 42 -14 73 -30 75 -38 2 -11
268 -145 414 -208 6 -3 14 6 18 20 3 14 12 26 19 26 8 0 7 4 -3 10 -12 7 -12
12 -2 22 9 9 12 9 12 -3 0 -12 2 -12 10 1 6 10 9 -2 8 -38 0 -36 -3 -50 -11
-46 -9 5 -9 4 -1 -5 12 -13 283 -144 589 -283 121 -55 315 -145 430 -200 215
-102 305 -141 311 -135 2 2 6 20 9 41 7 62 15 78 62 130 24 28 51 64 60 80 8
17 25 42 38 56 12 14 34 46 49 73 15 26 39 55 54 64 15 9 39 28 54 41 l27 25
36 -27 c19 -15 35 -34 35 -42 0 -7 7 -14 15 -14 8 0 47 -15 87 -34 40 -18 103
-44 141 -57 71 -25 87 -38 38 -31 -29 4 -30 2 -50 -64 -48 -167 -52 -198 -23
-213 34 -18 184 -41 203 -31 12 7 27 6 46 -1 95 -38 163 -41 163 -8 0 11 -102
59 -125 59 -8 0 -15 5 -15 10 0 6 5 10 11 10 6 0 9 9 6 19 -3 13 1 21 14 24
21 6 27 -9 7 -16 -7 -2 -11 -7 -8 -10 11 -12 33 11 27 27 -4 9 -6 19 -6 22 0
4 -5 11 -13 16 -9 7 -7 8 9 5 13 -3 26 -1 29 4 3 5 -2 9 -10 9 -9 0 -16 7 -16
15 0 8 6 12 14 9 7 -3 16 2 20 11 3 9 11 13 17 10 6 -4 8 -13 5 -21 -3 -8 -1
-14 3 -14 5 0 11 6 13 12 3 9 10 8 23 -5 13 -14 20 -15 26 -6 4 7 5 18 2 26
-3 9 3 13 21 13 14 0 26 6 27 13 0 6 4 0 9 -14 4 -14 35 -67 69 -117 53 -79
65 -92 96 -98 19 -3 39 -12 43 -20 13 -24 75 -64 99 -64 28 0 28 1 3 45 -11
19 -15 35 -10 35 6 0 10 -4 10 -10 0 -5 8 -10 18 -10 10 0 23 -5 30 -12 9 -9
21 -3 52 27 22 22 38 45 36 51 -2 6 -1 15 4 20 4 5 -23 55 -61 112 -88 134
-91 142 -45 142 20 0 53 -9 73 -20 21 -11 44 -20 51 -20 7 0 27 -16 45 -35
l32 -35 113 24 c62 12 115 25 118 28 11 11 -9 58 -25 58 -46 -1 -86 -29 -43
-31 9 0 2 -5 -17 -11 -37 -10 -85 -3 -76 12 3 4 19 11 35 15 17 4 28 10 25 14
-2 5 11 26 30 48 32 38 38 40 107 47 40 4 77 11 82 16 5 5 0 7 -12 3 -34 -8
-217 16 -320 43 -110 28 -296 114 -376 173 -67 50 -75 65 -11 21 95 -65 265
-130 435 -166 116 -24 357 -25 418 -1 23 9 42 14 42 11 0 -14 -95 -104 -110
-104 -12 0 -17 -6 -13 -18 3 -12 -19 -43 -64 -93 -76 -84 -388 -442 -618 -709
-226 -262 -1507 -1724 -1840 -2100 -114 -129 -315 -358 -447 -507 -541 -618
-550 -627 -671 -689 -101 -51 -181 -67 -312 -61 -171 8 -209 23 -645 252 -324
170 -1113 582 -1830 955 -278 145 -535 283 -572 307 -145 95 -199 207 -164
344 33 128 -36 52 1197 1305 443 450 989 1007 1214 1237 225 229 409 417 410
417 1 0 34 -16 74 -36z m1480 -54 c11 0 11 -3 1 -15 -13 -15 -61 -21 -73 -8
-13 12 16 34 37 29 12 -3 27 -6 35 -6z m2386 -26 c68 -38 72 -43 53 -62 -17
-17 -31 -15 -24 3 3 9 -1 18 -8 21 -17 6 -76 -34 -76 -51 0 -9 -72 -84 -162
-168 -14 -14 -17 -22 -9 -31 9 -10 4 -13 -21 -12 -37 1 -75 26 -40 26 10 0 40
19 67 42 46 41 47 41 24 53 -22 12 -22 13 33 69 30 31 58 53 62 49 4 -4 4 0 1
8 -3 9 3 23 15 34 23 21 27 40 6 32 -10 -4 -13 -1 -9 9 7 20 14 18 88 -22z
m-3665 16 c0 -5 -7 -10 -16 -10 -8 0 -12 5 -9 10 3 6 10 10 16 10 5 0 9 -4 9
-10z m1600 -30 c-6 -11 -15 -20 -21 -20 -6 0 -7 -5 -4 -10 4 -6 1 -9 -7 -8 -7
2 -12 -4 -10 -12 3 -11 1 -12 -8 -3 -9 8 -7 18 11 42 26 36 57 44 39 11z
m2663 -23 c90 -61 147 -109 147 -122 0 -7 -18 -12 -42 -13 -25 -1 -48 -8 -54
-17 -6 -9 -14 -11 -20 -5 -5 5 -25 5 -48 0 -27 -6 -52 -4 -85 6 -25 7 -65 14
-88 14 -29 0 -43 4 -43 13 0 14 149 167 163 167 4 0 36 -19 70 -43z m-775 -52
c-23 -23 -46 -40 -49 -39 -3 2 -17 -8 -32 -22 -46 -43 -30 -15 34 57 51 57 64
67 76 57 13 -10 8 -18 -29 -53z m-2985 44 c12 -7 23 -13 25 -14 6 -6 -46 -55
-58 -55 -9 0 -9 4 -2 13 5 6 8 24 6 40 -3 31 -1 31 29 16z m3164 -24 c0 -8 -4
-12 -9 -9 -5 3 -6 10 -3 15 9 13 12 11 12 -6z m-19 -53 c-7 -9 -38 -44 -69
-77 -31 -33 -70 -76 -87 -95 -17 -19 -33 -33 -36 -30 -3 3 13 27 35 53 22 26
38 51 34 56 -6 10 50 66 65 66 5 0 12 4 17 9 5 5 3 6 -4 2 -7 -4 -13 -2 -13 4
0 6 8 10 18 8 9 -2 16 2 15 7 -1 6 7 12 18 12 18 2 19 0 7 -15z m-1658 -88
c-11 -38 -25 -71 -31 -73 -8 -2 -7 -6 2 -11 17 -11 -29 -136 -79 -216 -29 -47
-37 -70 -40 -121 -3 -35 -7 -63 -9 -63 -3 0 -22 13 -42 28 -51 39 -207 132
-222 132 -10 0 23 40 92 109 14 14 52 49 85 76 32 28 83 72 112 99 48 45 144
117 149 112 2 -1 -6 -34 -17 -72z m-597 43 c-2 -4 -3 -11 -3 -17 0 -5 -7 -10
-15 -10 -8 0 -15 2 -15 4 0 2 -3 12 -6 20 -5 13 -1 15 17 13 13 -2 23 -7 22
-10z m2897 -37 c0 -5 -5 -10 -11 -10 -5 0 -7 5 -4 10 3 6 8 10 11 10 2 0 4 -4
4 -10z m-1494 -231 c6 -10 -2 -11 -33 -3 -13 4 -23 10 -23 14 0 10 49 0 56
-11z m84 11 c0 -5 -4 -10 -10 -10 -5 0 -10 5 -10 10 0 6 5 10 10 10 6 0 10 -4
10 -10z m-40 -30 c8 -5 11 -10 5 -10 -5 0 -17 5 -25 10 -8 5 -10 10 -5 10 6 0
17 -5 25 -10z m165 -20 c3 -5 -1 -10 -10 -10 -9 0 -13 5 -10 10 3 6 8 10 10
10 2 0 7 -4 10 -10z m-17 -177 c-10 -2 -18 -9 -18 -15 0 -6 -3 -9 -6 -5 -10
10 6 27 24 26 15 -1 15 -2 0 -6z m-4 -54 c-8 -14 -34 -10 -34 5 0 9 7 12 20 9
11 -3 17 -9 14 -14z m46 3 c0 -13 -12 -22 -22 -16 -10 6 -1 24 13 24 5 0 9 -4
9 -8z m-410 -1736 c0 -2 -8 -10 -17 -17 -16 -13 -17 -12 -4 4 13 16 21 21 21
13z m-200 -229 c0 -2 -12 -14 -27 -28 l-28 -24 24 28 c23 25 31 32 31 24z
m-90 -100 c0 -2 -10 -12 -22 -23 l-23 -19 19 23 c18 21 26 27 26 19z m-60 -70
c0 -2 -15 -16 -32 -33 l-33 -29 29 33 c28 30 36 37 36 29z m-60 -70 c0 -2 -17
-19 -37 -38 l-38 -34 34 38 c33 34 41 42 41 34z m-80 -90 c0 -2 -15 -16 -32
-33 l-33 -29 29 33 c28 30 36 37 36 29z m-60 -70 c0 -2 -15 -16 -32 -33 l-33
-29 29 33 c28 30 36 37 36 29z m-109 -126 c-28 -32 -58 -64 -68 -72 -10 -8 11
19 46 59 34 39 65 72 68 72 3 0 -18 -26 -46 -59z m-5126 19 c10 -11 16 -20 13
-20 -3 0 -13 9 -23 20 -10 11 -16 20 -13 20 3 0 13 -9 23 -20z m76 -77 c13
-16 12 -17 -3 -4 -17 13 -22 21 -14 21 2 0 10 -8 17 -17z m4864 -153 c-53 -60
-99 -110 -102 -110 -5 0 95 118 156 183 68 72 41 36 -54 -73z m-115 -133 c0
-2 -12 -14 -27 -28 l-28 -24 24 28 c23 25 31 32 31 24z m-125 -142 c-32 -36
-60 -65 -63 -65 -5 0 8 16 82 98 54 59 39 33 -19 -33z m-3765 -40 c0 -3 -27 8
-60 25 -33 17 -60 33 -60 35 0 3 27 -8 60 -25 33 -17 60 -33 60 -35z m3690
-48 c0 -2 -15 -16 -32 -33 l-33 -29 29 33 c28 30 36 37 36 29z m-80 -90 c0 -2
-12 -14 -27 -28 l-28 -24 24 28 c23 25 31 32 31 24z m-60 -70 c0 -2 -15 -16
-32 -33 l-33 -29 29 33 c28 30 36 37 36 29z m-170 -191 c0 -2 -8 -10 -17 -17
-16 -13 -17 -12 -4 4 13 16 21 21 21 13z m-410 -459 c0 -2 -19 -21 -42 -42
l-43 -40 40 43 c36 39 45 47 45 39z m-90 -81 c0 -3 -15 -14 -32 -26 l-33 -22
30 26 c31 27 35 29 35 22z m-90 -61 c0 -6 -76 -45 -87 -45 -4 1 12 12 37 25
50 27 50 27 50 20z"/>
<path d="M6955 6760 c-3 -5 -1 -10 4 -10 6 0 11 5 11 10 0 6 -2 10 -4 10 -3 0
-8 -4 -11 -10z"/>
<path d="M6900 6700 c0 -5 5 -10 11 -10 6 0 9 -7 5 -15 -7 -20 8 -19 25 2 10
11 10 14 2 9 -8 -4 -13 -1 -13 8 0 9 -7 16 -15 16 -8 0 -15 -4 -15 -10z"/>
<path d="M6171 6516 c-10 -11 -9 -14 1 -12 14 2 23 15 15 22 -2 2 -10 -2 -16
-10z"/>
<path d="M7000 6380 c0 -5 5 -10 10 -10 6 0 10 5 10 10 0 6 -4 10 -10 10 -5 0
-10 -4 -10 -10z"/>
<path d="M7661 7305 c-21 -37 -15 -50 7 -15 7 12 17 18 21 15 5 -3 7 4 4 15
-3 11 -7 20 -8 20 -2 0 -12 -16 -24 -35z"/>
<path d="M9370 6199 c0 -5 5 -7 10 -4 6 3 10 8 10 11 0 2 -4 4 -10 4 -5 0 -10
-5 -10 -11z"/>
<path d="M9128 5973 c7 -3 16 -2 19 1 4 3 -2 6 -13 5 -11 0 -14 -3 -6 -6z"/>
<path d="M9340 5400 c0 -5 4 -10 9 -10 6 0 13 5 16 10 3 6 -1 10 -9 10 -9 0
-16 -4 -16 -10z"/>
<path d="M7585 5310 c-30 -8 -30 -8 8 -9 23 -1 36 3 32 9 -3 6 -7 9 -8 9 -1
-1 -15 -5 -32 -9z"/>
<path d="M6070 5133 c-25 -27 -60 -65 -79 -85 l-34 -37 69 -31 c65 -29 94 -33
94 -11 0 6 -18 20 -41 31 -46 24 -47 21 34 107 47 49 48 52 29 62 -27 15 -22
17 -72 -36z"/>
<path d="M8310 5122 c-14 -13 -24 -30 -22 -38 2 -8 -2 -14 -8 -14 -6 0 -8 5
-5 10 3 6 -1 10 -10 10 -10 0 -15 -7 -13 -17 2 -11 11 -17 23 -15 42 6 46 11
35 32 -8 15 -8 20 3 20 7 0 18 -5 25 -12 9 -9 13 -7 18 6 4 10 1 23 -7 30 -11
10 -19 8 -39 -12z"/>
<path d="M5310 5125 c14 -8 30 -14 35 -14 6 0 -1 6 -15 14 -14 8 -29 14 -35
14 -5 0 1 -6 15 -14z"/>
<path d="M5279 5091 c-13 -11 -21 -22 -18 -25 3 -3 16 5 29 19 28 30 22 33
-11 6z"/>
<path d="M6217 5041 c-81 -84 -74 -135 22 -161 57 -15 94 3 163 82 l57 65 -24
11 c-22 10 -28 6 -81 -54 -53 -60 -60 -65 -93 -62 -56 5 -53 34 9 103 28 31
48 60 45 65 -14 22 -45 7 -98 -49z"/>
<path d="M5345 5070 c-18 -20 -14 -51 7 -49 10 0 10 2 1 6 -18 7 -16 23 4 45
9 10 14 18 11 18 -3 0 -13 -9 -23 -20z"/>
<path d="M5410 5083 c17 -8 11 -31 -12 -47 -12 -9 -17 -16 -11 -16 33 0 56 60
25 66 -7 1 -8 0 -2 -3z"/>
<path d="M9015 5064 c-22 -7 -52 -13 -67 -13 -39 -1 -35 -27 6 -42 25 -9 32
-17 28 -28 -5 -14 -3 -14 11 -2 9 7 17 19 17 26 0 7 12 24 27 39 14 14 24 28
22 29 -2 2 -22 -2 -44 -9z"/>
<path d="M5445 5020 c-16 -17 -24 -30 -19 -30 12 0 58 50 52 56 -3 2 -17 -10
-33 -26z"/>
<path d="M8270 5030 c0 -5 5 -10 10 -10 6 0 10 5 10 10 0 6 -4 10 -10 10 -5 0
-10 -4 -10 -10z"/>
<path d="M5488 5023 c-13 -3 -18 -14 -17 -36 2 -30 2 -31 6 -5 3 21 12 30 36
37 32 9 8 13 -25 4z"/>
<path d="M5567 5003 c-4 -3 -7 -16 -7 -28 0 -11 -4 -26 -10 -33 -6 -8 -5 -7 4
0 7 7 16 25 20 41 6 27 5 32 -7 20z"/>
<path d="M5600 4975 c-14 -8 -20 -14 -14 -15 5 0 19 7 30 15 24 18 16 19 -16
0z"/>
<path d="M8906 4976 c4 -11 -1 -19 -17 -25 -35 -14 -11 -13 28 1 31 11 45 28
24 28 -5 0 -17 3 -25 6 -12 5 -15 2 -10 -10z"/>
<path d="M6465 4966 c-44 -19 -85 -72 -85 -107 0 -59 74 -97 147 -77 67 18 48
51 -24 41 -45 -6 -73 7 -73 34 0 27 66 83 97 83 32 0 63 -26 63 -52 0 -16 34
-31 44 -20 15 14 4 61 -19 82 -30 28 -106 37 -150 16z"/>
<path d="M5627 4942 c-29 -32 -16 -64 26 -61 7 0 2 4 -10 9 -42 17 -18 65 28
58 29 -4 34 -21 14 -42 -9 -9 -12 -16 -5 -16 6 0 16 12 22 26 10 21 9 27 -3
35 -23 14 -55 10 -72 -9z"/>
<path d="M8771 4919 c-13 -5 -22 -11 -19 -14 5 -5 78 14 78 20 0 8 -33 4 -59
-6z"/>
<path d="M6687 4888 c-3 -13 -9 -45 -13 -71 -4 -29 -17 -60 -32 -79 -21 -24
-23 -31 -11 -39 23 -14 34 -11 63 20 16 16 66 46 113 67 83 37 84 38 59 51
-23 12 -31 11 -76 -12 -27 -14 -52 -25 -54 -25 -3 0 -3 21 1 46 4 34 2 48 -8
55 -23 14 -37 10 -42 -13z"/>
<path d="M8806 4901 c-3 -4 8 -8 24 -7 17 1 30 4 30 9 0 10 -48 9 -54 -2z"/>
<path d="M5927 4802 c-15 -15 -27 -32 -27 -37 0 -5 8 0 18 11 49 55 56 75 9
26z"/>
<path d="M5994 4789 c-3 -6 -16 -8 -28 -5 -19 5 -19 4 -4 -8 13 -10 15 -15 6
-24 -7 -7 -8 -12 -2 -11 13 0 58 59 45 59 -5 0 -13 -5 -17 -11z"/>
<path d="M6020 4748 l-23 -33 31 29 c34 31 37 36 24 36 -5 0 -19 -15 -32 -32z"/>
<path d="M6062 4737 c-25 -26 -30 -46 -7 -27 12 10 18 10 30 0 19 -16 55 -3
55 20 0 17 -18 30 -44 30 -7 0 -22 -10 -34 -23z m66 -4 c5 -17 -26 -29 -40
-15 -6 6 -7 15 -3 22 9 14 37 9 43 -7z"/>
<path d="M6150 4688 c-12 -18 -17 -27 -9 -20 15 14 29 15 48 3 12 -8 12 -12 2
-25 -8 -9 -9 -16 -3 -16 13 0 65 61 57 68 -3 3 -11 -2 -18 -10 -9 -12 -18 -14
-36 -7 -19 8 -21 12 -11 24 7 8 8 15 3 15 -5 0 -20 -15 -33 -32z"/>
<path d="M6259 4657 c-22 -17 -29 -43 -16 -56 32 -32 114 10 91 47 -14 21 -54
26 -75 9z m67 -12 c9 -21 -14 -45 -43 -45 -31 0 -42 29 -18 46 25 18 54 18 61
-1z"/>
<path d="M6357 4602 l-27 -28 46 -2 c47 -2 69 17 45 41 -9 9 -11 8 -6 -5 8
-21 -16 -34 -42 -23 -16 6 -16 8 6 26 13 10 19 19 14 19 -5 0 -21 -13 -36 -28z"/>
<path d="M6510 4525 c-19 -19 -29 -35 -23 -35 7 0 14 4 18 10 10 16 37 -1 32
-21 -3 -11 -1 -19 4 -19 13 0 11 34 -2 47 -13 13 -4 33 16 33 21 0 30 -21 14
-32 -12 -8 -11 -9 1 -5 21 5 19 27 -6 43 -18 13 -23 11 -54 -21z"/>
<path d="M5095 4536 c-17 -7 -43 -28 -58 -45 -63 -75 -11 -151 104 -151 138 0
216 139 109 195 -36 18 -114 19 -155 1z m125 -31 c62 -32 26 -119 -53 -132
-99 -16 -146 71 -68 124 39 27 80 29 121 8z"/>
<path d="M5112 4467 c-26 -28 -27 -31 -6 -51 22 -22 70 -20 94 4 24 24 25 34
4 54 -23 23 -67 20 -92 -7z"/>
<path d="M6625 4499 c-11 -16 -1 -19 13 -3 7 8 8 14 3 14 -5 0 -13 -5 -16 -11z"/>
<path d="M5376 4445 c-20 -31 -20 -35 2 -35 19 0 46 36 37 50 -10 16 -22 11
-39 -15z"/>
<path d="M6583 4456 c1 -11 9 -21 17 -23 10 -3 11 -2 4 4 -6 4 -14 15 -17 23
-5 11 -6 9 -4 -4z"/>
<path d="M6704 4447 c-36 -40 -37 -47 -10 -57 48 -18 77 17 39 46 -16 12 -16
15 -3 24 8 5 10 10 4 10 -6 0 -19 -10 -30 -23z m31 -36 c0 -8 -4 -16 -10 -18
-16 -5 -38 14 -30 26 9 16 40 9 40 -8z"/>
<path d="M6756 4447 c3 -10 9 -15 12 -12 3 3 0 11 -7 18 -10 9 -11 8 -5 -6z"/>
<path d="M6635 4430 c-16 -7 -17 -9 -3 -9 9 -1 20 4 23 9 7 11 7 11 -20 0z"/>
<path d="M5487 4413 c-12 -12 -8 -18 24 -32 23 -10 33 -11 42 -2 9 9 6 13 -11
17 -12 4 -22 10 -22 15 0 10 -24 12 -33 2z"/>
<path d="M5275 4335 c-46 -46 -55 -65 -31 -65 17 0 38 24 29 33 -3 4 -1 7 6 7
7 0 21 10 32 23 14 17 21 19 27 9 9 -13 42 -6 42 9 0 8 -41 29 -56 29 -2 0
-25 -20 -49 -45z"/>
<path d="M6865 4350 l-28 -29 27 -12 c52 -24 107 18 76 56 -19 23 -44 18 -75
-15z m71 5 c8 -21 -14 -45 -41 -45 -32 0 -36 9 -17 36 19 27 50 31 58 9z"/>
<path d="M5437 4353 c-13 -12 -7 -23 13 -23 11 0 20 7 20 15 0 15 -21 21 -33
8z"/>
<path d="M4880 4324 c0 -9 7 -14 17 -12 25 5 28 28 4 28 -12 0 -21 -6 -21 -16z"/>
<path d="M5557 4333 c-14 -13 -6 -24 15 -21 27 4 36 28 11 28 -11 0 -23 -3
-26 -7z"/>
<path d="M6984 4328 c-4 -7 -14 -23 -21 -35 -11 -16 -11 -23 -2 -29 7 -4 9 -3
5 4 -3 5 6 24 20 41 14 17 21 31 15 31 -5 0 -13 -6 -17 -12z"/>
<path d="M4950 4305 c-8 -9 -21 -13 -32 -9 -12 4 -24 -1 -32 -12 -9 -12 -15
-14 -20 -6 -4 7 -14 12 -22 12 -17 0 -19 -27 -1 -33 9 -3 9 -7 -2 -20 -11 -14
-11 -18 3 -23 20 -8 49 14 42 32 -2 6 4 14 15 17 10 3 19 1 19 -4 0 -5 6 -9
13 -9 14 0 47 35 47 50 0 17 -18 20 -30 5z"/>
<path d="M5010 4305 c0 -10 7 -15 18 -13 21 4 19 22 -2 26 -10 2 -16 -3 -16
-13z"/>
<path d="M5445 4309 c-8 -12 -8 -12 20 -27 20 -11 20 -11 0 -12 -27 0 -50 -37
-35 -55 8 -9 8 -15 0 -20 -6 -3 -8 -11 -5 -16 11 -17 35 -9 47 16 13 29 27 31
69 9 29 -15 30 -16 12 -29 -17 -13 -17 -14 0 -20 13 -5 15 -11 7 -20 -7 -9 -6
-16 4 -24 8 -6 12 -21 9 -31 -4 -14 0 -20 10 -20 23 0 31 18 16 36 -10 12 -8
19 10 38 20 22 21 25 6 33 -14 8 -11 14 19 44 39 37 44 49 21 49 -20 0 -19 16
1 24 13 5 14 9 4 21 -10 12 -16 13 -28 3 -8 -7 -25 -11 -37 -10 -15 2 -30 -6
-44 -24 -24 -30 -53 -27 -44 5 4 16 -1 23 -22 31 -33 12 -32 12 -40 -1z m175
-58 c0 -5 -6 -13 -13 -19 -15 -12 -57 -5 -57 10 0 5 4 7 9 3 5 -3 12 -1 16 5
8 12 45 13 45 1z m-140 -5 c0 -3 -4 -8 -10 -11 -5 -3 -10 -1 -10 4 0 6 5 11
10 11 6 0 10 -2 10 -4z"/>
<path d="M5685 4310 c-8 -12 20 -24 35 -15 6 3 8 11 5 16 -8 12 -32 12 -40 -1z"/>
<path d="M7034 4285 c-9 -14 -26 -26 -38 -26 -17 -1 -18 -2 -3 -6 20 -5 43 10
58 39 14 27 2 22 -17 -7z"/>
<path d="M5745 4280 c-8 -14 55 -44 67 -32 12 12 1 35 -12 27 -5 -3 -11 -1
-15 5 -8 13 -32 13 -40 0z"/>
<path d="M7071 4258 c-26 -28 -28 -34 -15 -41 9 -5 18 -6 21 -3 4 3 1 6 -7 6
-9 0 -10 3 -1 14 14 16 51 10 51 -9 0 -8 -8 -16 -17 -18 -16 -4 -16 -5 -1 -6
9 -1 23 13 33 31 15 30 15 34 -2 45 -24 18 -28 17 -62 -19z m58 9 c14 -18 5
-26 -20 -20 -20 5 -24 15 -12 26 10 10 19 8 32 -6z"/>
<path d="M5017 4274 c-13 -13 -7 -24 14 -24 11 0 19 5 17 12 -5 14 -22 21 -31
12z"/>
<path d="M5110 4270 c-15 -9 -5 -30 15 -30 18 0 27 27 11 33 -7 3 -19 2 -26
-3z"/>
<path d="M5361 4266 c-8 -10 -9 -16 -1 -21 13 -8 30 3 30 21 0 18 -14 18 -29
0z"/>
<path d="M5297 4264 c-14 -14 -7 -25 13 -22 12 2 21 8 21 13 0 12 -24 18 -34
9z"/>
<path d="M5236 4244 c-4 -9 -2 -22 3 -28 6 -7 6 -17 0 -26 -8 -13 -10 -13 -18
-1 -10 15 -41 8 -41 -9 0 -6 7 -13 15 -17 12 -4 6 -14 -27 -45 -40 -36 -41
-39 -20 -45 25 -6 30 -23 7 -23 -8 0 -15 -7 -15 -15 0 -21 38 -19 44 3 4 11
18 25 31 32 28 15 33 37 9 42 -13 2 -12 6 5 25 11 12 29 26 38 32 15 8 16 13
6 30 -8 12 -9 22 -3 26 12 8 1 35 -15 35 -7 0 -16 -7 -19 -16z"/>
<path d="M5704 4229 c-10 -17 13 -36 27 -22 12 12 4 33 -11 33 -5 0 -12 -5
-16 -11z"/>
<path d="M4767 4210 c-35 -41 -11 -56 29 -17 13 12 24 25 24 30 0 15 -36 6
-53 -13z"/>
<path d="M4964 4219 c-4 -6 1 -16 10 -21 15 -8 15 -11 1 -25 -21 -20 -45 -10
-38 16 8 32 -29 27 -44 -6 -10 -21 -10 -29 -1 -34 7 -4 15 -6 19 -4 10 7 40
-31 37 -46 -2 -8 7 -15 20 -17 24 -4 32 23 10 31 -22 8 5 27 30 21 22 -6 31
-24 12 -24 -19 0 -10 -21 15 -32 25 -11 33 -32 16 -43 -5 -3 -25 4 -45 16 -34
20 -56 19 -56 -2 0 -5 10 -14 23 -19 17 -7 18 -9 5 -9 -22 -1 -24 -31 -3 -31
8 0 15 4 15 10 0 5 11 9 25 8 26 -2 32 -12 15 -23 -15 -9 -12 -25 5 -25 18 0
20 -17 3 -22 -10 -4 -9 -9 3 -21 16 -15 32 -21 57 -18 19 2 14 31 -5 31 -13 0
-14 3 -5 12 17 17 15 28 -5 28 -14 1 -12 5 10 21 34 26 34 42 1 58 -21 9 -24
14 -14 25 9 11 7 16 -6 24 -20 11 -9 36 13 28 8 -3 24 -1 36 5 19 11 19 12 3
24 -11 8 -13 15 -7 20 18 10 13 19 -18 33 -27 12 -61 8 -61 -8 0 -4 10 -10 22
-14 21 -5 21 -7 7 -21 -19 -20 -52 -9 -44 14 6 21 -50 58 -61 40z"/>
<path d="M5313 4223 c-18 -6 -16 -33 1 -33 19 0 31 19 20 30 -5 4 -15 5 -21 3z"/>
<path d="M5360 4214 c0 -9 7 -14 17 -12 25 5 28 28 4 28 -12 0 -21 -6 -21 -16z"/>
<path d="M5787 4223 c-14 -13 -6 -24 15 -21 27 4 36 28 11 28 -11 0 -23 -3
-26 -7z"/>
<path d="M5902 4185 c-13 -13 -21 -29 -17 -34 3 -7 0 -8 -9 -5 -9 3 -16 10
-16 15 0 5 -7 9 -15 9 -18 0 -19 -12 -2 -29 10 -10 9 -11 -5 -6 -10 4 -18 11
-18 15 0 9 -44 5 -61 -6 -7 -4 -10 -3 -6 3 10 15 -29 47 -45 36 -7 -4 -22 -8
-32 -8 -11 0 -21 -6 -23 -12 -3 -7 3 -13 13 -13 14 0 11 -7 -15 -34 -35 -36
-28 -56 11 -34 13 7 27 11 32 9 6 -1 20 3 33 10 20 11 25 10 37 -7 8 -10 17
-16 21 -12 11 11 41 -26 37 -44 -2 -10 1 -18 8 -18 7 0 9 -8 5 -19 -8 -27 12
-36 40 -17 13 9 41 16 61 16 31 0 35 -2 24 -15 -15 -18 -5 -35 23 -35 35 0 4
-21 -34 -23 -39 -2 -48 -30 -11 -35 18 -3 21 -8 16 -28 -5 -20 -3 -24 17 -24
22 0 22 0 3 -14 -15 -11 -16 -17 -7 -27 9 -9 22 -1 57 37 50 52 57 74 26 74
-11 0 -20 -4 -20 -10 0 -5 -7 -10 -16 -10 -11 0 -14 6 -8 23 9 30 14 34 23 19
8 -13 41 -6 41 9 0 5 -21 18 -46 29 -29 14 -44 26 -40 35 2 7 -2 16 -10 19
-12 5 -12 9 -2 25 7 11 9 23 6 27 -12 11 -40 -5 -45 -26 -5 -19 -42 -28 -56
-14 -9 9 16 44 30 44 18 0 16 17 -2 27 -12 7 -8 16 19 48 33 38 38 56 13 54
-7 -1 -23 -12 -35 -24z m-102 -65 c0 -5 -4 -10 -10 -10 -5 0 -10 5 -10 10 0 6
5 10 10 10 6 0 10 -4 10 -10z"/>
<path d="M5353 4165 c-23 -22 -21 -35 4 -35 18 0 55 39 48 50 -9 15 -28 10
-52 -15z"/>
<path d="M5985 4170 c-10 -16 5 -32 24 -26 14 5 13 4 -1 -8 -24 -18 -23 -36 2
-36 11 0 20 7 20 15 0 13 4 14 21 4 15 -8 24 -8 32 0 13 13 -17 40 -45 41 -9
0 -20 5 -23 10 -3 6 -10 10 -15 10 -5 0 -12 -4 -15 -10z"/>
<path d="M4820 4155 c0 -18 -12 -19 -27 -4 -7 7 -20 8 -30 5 -17 -7 -17 -8 -1
-20 17 -12 16 -15 -7 -40 -30 -32 -31 -36 -7 -36 16 0 112 89 112 104 0 3 -9
6 -20 6 -11 0 -20 -7 -20 -15z"/>
<path d="M5488 4149 c-21 -23 -23 -39 -5 -39 19 0 50 37 42 49 -9 15 -17 13
-37 -10z"/>
<path d="M5269 4129 c-23 -20 -23 -21 -5 -35 19 -13 19 -14 -7 -37 -32 -27
-34 -37 -8 -37 11 0 23 -4 26 -10 3 -5 -3 -10 -14 -10 -12 0 -21 -5 -21 -10 0
-15 50 -32 69 -24 9 4 28 6 44 5 15 -2 27 2 27 8 0 6 12 8 30 5 43 -9 38 12
-7 34 -44 20 -57 34 -40 44 15 9 -20 37 -47 38 -16 0 -17 3 -8 12 16 16 15 38
-1 38 -8 0 -25 -9 -38 -21z m59 -67 c17 -11 4 -45 -15 -38 -8 3 -19 6 -24 6
-5 0 -4 9 3 20 14 22 17 23 36 12z"/>
<path d="M5930 4104 c0 -9 7 -14 17 -12 25 5 28 28 4 28 -12 0 -21 -6 -21 -16z"/>
<path d="M6115 4101 c-3 -5 9 -17 26 -25 25 -12 35 -13 46 -4 12 10 11 14 -9
24 -27 16 -55 18 -63 5z"/>
<path d="M5382 4088 c7 -19 38 -22 38 -4 0 10 -9 16 -21 16 -12 0 -19 -5 -17
-12z"/>
<path d="M5466 4075 c-21 -32 -20 -35 6 -35 21 0 21 0 2 -14 -14 -11 -16 -18
-8 -26 25 -25 66 28 43 56 -7 8 -7 14 1 19 6 3 8 11 5 16 -11 16 -32 10 -49
-16z"/>
<path d="M6046 4076 c-9 -14 -16 -27 -16 -29 0 -2 16 -9 35 -17 27 -11 34 -18
29 -32 -7 -24 9 -23 32 3 18 20 18 21 -1 35 -10 8 -22 14 -27 14 -4 0 -7 10
-5 22 3 32 -27 34 -47 4z"/>
<path d="M4640 4080 c0 -5 7 -10 15 -10 17 0 20 -16 5 -25 -5 -3 -10 -9 -10
-13 0 -7 48 -32 62 -32 14 0 8 22 -9 36 -11 8 -13 13 -5 14 17 0 15 27 -4 34
-24 9 -54 7 -54 -4z"/>
<path d="M5695 4070 c-3 -5 -3 -14 0 -20 3 -5 -1 -10 -9 -10 -19 0 -21 -11 -5
-27 8 -8 8 -13 0 -17 -13 -8 -15 -36 -3 -36 5 0 22 11 38 25 27 24 28 27 12
39 -12 9 -14 16 -7 23 12 12 4 33 -11 33 -5 0 -12 -4 -15 -10z"/>
<path d="M4792 4033 c-16 -17 -20 -28 -13 -33 7 -3 9 -15 5 -24 -5 -14 -3 -17
12 -14 14 3 18 11 16 31 -2 18 2 27 12 27 21 0 30 -19 16 -35 -10 -12 -7 -17
15 -25 14 -5 33 -10 41 -10 16 0 20 29 4 31 -5 1 -14 3 -20 4 -5 1 -13 3 -16
4 -4 0 0 8 7 17 11 14 10 19 -10 35 -30 24 -41 23 -69 -8z"/>
<path d="M4897 4044 c-14 -14 -7 -25 13 -22 12 2 21 8 21 13 0 12 -24 18 -34
9z"/>
<path d="M5760 4025 c0 -10 7 -15 18 -13 21 4 19 22 -2 26 -10 2 -16 -3 -16
-13z"/>
<path d="M6231 3988 c-69 -37 -96 -108 -58 -156 54 -68 211 -55 258 22 27 44
24 80 -10 118 -24 27 -36 32 -87 36 -48 3 -67 -1 -103 -20z m147 -34 c33 -23
27 -79 -11 -108 -42 -31 -122 -29 -148 3 -27 33 -24 58 10 92 25 24 38 29 78
29 28 0 58 -7 71 -16z"/>
<path d="M6268 3934 c-53 -28 -28 -84 36 -84 29 0 68 44 59 66 -5 14 -43 35
-61 34 -4 -1 -19 -8 -34 -16z"/>
<path d="M5529 3989 c-11 -6 -11 -11 -2 -20 12 -12 43 -6 43 10 0 14 -25 20
-41 10z"/>
<path d="M5771 3986 c-9 -10 -8 -15 2 -19 19 -7 41 8 33 22 -10 15 -21 14 -35
-3z"/>
<path d="M4541 3976 c-10 -11 -7 -17 16 -28 16 -8 34 -13 41 -10 19 6 14 32
-6 32 -10 0 -23 5 -28 10 -8 8 -15 6 -23 -4z"/>
<path d="M5594 3972 c8 -23 -59 -93 -80 -85 -17 6 -18 19 -3 29 8 5 6 10 -6
16 -22 13 -47 -8 -26 -22 12 -7 12 -12 3 -23 -10 -12 -6 -18 23 -36 20 -11 38
-21 41 -21 3 0 34 -14 70 -31 57 -27 62 -33 48 -44 -16 -11 -16 -13 0 -22 16
-9 16 -11 2 -22 -22 -19 -20 -34 4 -28 11 3 22 2 25 -3 3 -4 -5 -10 -17 -14
-18 -4 -20 -8 -11 -17 10 -10 18 -10 36 0 20 10 30 10 62 -3 49 -21 61 -20 88
5 20 20 21 22 5 32 -16 11 -15 14 9 39 24 25 25 28 8 34 -23 9 -56 -32 -50
-63 6 -33 -8 -36 -64 -11 -47 21 -65 38 -41 38 14 0 13 27 -2 32 -6 2 -8 10
-4 16 9 14 56 16 56 2 0 -5 12 -10 26 -10 31 0 28 24 -5 28 -22 3 -21 4 5 24
20 16 28 18 34 8 4 -7 15 -10 24 -7 18 7 21 23 6 32 -5 3 -7 12 -4 19 10 26
-18 28 -44 3 -19 -18 -34 -24 -52 -20 -20 3 -29 -1 -40 -21 -14 -27 -21 -28
-83 -4 -17 7 -26 16 -23 24 3 7 -4 20 -15 27 -19 14 -18 15 16 52 40 41 39 65
0 65 -21 0 -25 -4 -21 -18z m6 -116 c0 -3 -4 -8 -10 -11 -5 -3 -10 -1 -10 4 0
6 5 11 10 11 6 0 10 -2 10 -4z"/>
<path d="M4634 3969 c-3 -6 -2 -15 2 -19 12 -12 38 5 30 19 -9 14 -23 14 -32
0z"/>
<path d="M4962 3968 c-7 -7 -12 -18 -12 -26 0 -9 -9 -13 -28 -11 -36 4 -82
-35 -64 -53 9 -9 16 -7 32 7 14 12 23 15 32 8 7 -6 25 -13 39 -16 22 -6 25
-11 21 -32 -2 -14 0 -25 6 -25 6 0 17 -6 25 -14 19 -20 69 -24 75 -7 3 8 0 11
-7 7 -6 -4 -21 2 -33 14 -12 11 -28 18 -35 15 -11 -4 -11 0 -2 17 9 17 8 24
-5 34 -15 11 -15 12 1 19 17 6 17 7 0 20 -12 9 -14 15 -7 20 8 5 8 11 -1 21
-14 17 -21 18 -37 2z"/>
<path d="M5894 3969 c-3 -6 -1 -16 4 -21 13 -13 45 8 36 23 -7 12 -31 11 -40
-2z"/>
<path d="M4720 3954 c0 -9 7 -14 17 -12 25 5 28 28 4 28 -12 0 -21 -6 -21 -16z"/>
<path d="M5150 3948 c-37 -40 -16 -60 24 -23 30 28 31 31 11 39 -8 3 -24 -4
-35 -16z"/>
<path d="M5413 3963 c-16 -6 -17 -33 -2 -33 6 0 8 -9 4 -20 -4 -14 -2 -20 9
-20 21 0 31 21 15 32 -11 7 -11 11 -1 15 26 10 2 35 -25 26z"/>
<path d="M6087 3964 c-9 -10 2 -24 19 -24 8 0 14 7 14 15 0 15 -21 21 -33 9z"/>
<path d="M5831 3941 c-22 -19 -21 -41 0 -41 11 0 48 40 49 53 0 14 -27 7 -49
-12z"/>
<path d="M4790 3935 c-10 -12 -9 -16 3 -21 17 -6 37 2 37 16 0 15 -29 19 -40
5z"/>
<path d="M5686 3941 c-3 -5 1 -12 10 -15 13 -5 14 -9 4 -21 -6 -8 -9 -19 -6
-24 9 -14 36 -2 36 15 0 8 7 14 15 14 21 0 19 17 -4 30 -24 12 -48 13 -55 1z"/>
<path d="M4670 3905 c-10 -12 -16 -13 -27 -3 -11 9 -20 5 -44 -21 -16 -18 -29
-34 -29 -36 0 -3 -17 -20 -37 -39 -39 -36 -39 -58 0 -37 18 9 29 8 62 -9 68
-35 106 -19 45 19 -26 15 -28 20 -16 30 11 9 24 7 60 -11 37 -18 50 -20 65
-11 14 9 21 9 30 0 19 -19 12 -29 -15 -23 -22 6 -32 0 -60 -31 -37 -42 -41
-53 -20 -53 7 0 19 -7 26 -16 11 -12 11 -18 -2 -30 -13 -13 -18 -12 -41 7
l-28 21 -30 -30 c-30 -29 -30 -31 -11 -41 26 -14 59 -14 67 -1 4 6 16 8 27 4
15 -5 26 0 39 17 10 13 28 24 40 24 28 0 37 23 12 31 -53 17 -61 25 -49 49 10
22 12 22 28 8 21 -19 48 -10 48 16 0 22 16 30 43 23 16 -4 15 -8 -10 -34 -23
-24 -25 -31 -13 -39 11 -8 12 -12 3 -16 -17 -6 -16 -33 1 -33 7 0 19 7 26 15
9 10 17 12 23 6 5 -5 16 -7 25 -3 12 4 14 1 9 -12 -4 -10 -7 -22 -7 -27 0 -5
-9 -9 -20 -9 -21 0 -27 -15 -10 -25 11 -7 1 -37 -17 -48 -20 -12 -16 -26 12
-39 31 -14 31 -21 3 -48 -15 -14 -19 -23 -12 -30 14 -14 36 -5 53 22 11 17 11
22 0 29 -10 6 -8 14 11 34 24 26 24 27 6 40 -10 8 -23 16 -27 17 -5 2 -6 13
-3 26 6 22 28 30 38 13 9 -14 65 -31 71 -21 3 5 -11 16 -30 26 -29 13 -34 20
-29 38 4 11 14 26 23 33 9 6 13 15 8 19 -4 4 -16 -2 -27 -14 -12 -12 -25 -22
-30 -22 -16 0 -22 20 -10 34 8 11 5 18 -15 34 -16 13 -23 26 -19 37 5 11 0 18
-15 22 -20 5 -20 6 -4 19 15 10 16 15 5 25 -10 11 -15 10 -28 -3 -14 -14 -19
-14 -46 -1 -25 13 -34 13 -54 3 -18 -10 -26 -10 -38 -1 -8 7 -20 10 -26 6 -18
-11 -10 21 10 40 11 10 20 24 20 32 0 18 -25 17 -40 -2z m-20 -44 c0 -12 -20
-25 -27 -18 -7 7 6 27 18 27 5 0 9 -4 9 -9z m-40 -25 c0 -3 -4 -8 -10 -11 -5
-3 -10 -1 -10 4 0 6 5 11 10 11 6 0 10 -2 10 -4z m285 -146 c-3 -5 -10 -10
-16 -10 -5 0 -9 5 -9 10 0 6 7 10 16 10 8 0 12 -4 9 -10z m-255 -80 c0 -5 -5
-10 -11 -10 -5 0 -7 5 -4 10 3 6 8 10 11 10 2 0 4 -4 4 -10z"/>
<path d="M4520 3895 c0 -18 -12 -19 -27 -4 -6 6 -16 8 -22 5 -20 -13 -12 -34
15 -40 20 -5 33 -1 50 15 24 23 24 39 -2 39 -8 0 -14 -7 -14 -15z"/>
<path d="M5635 3890 c-3 -5 -4 -14 0 -20 8 -13 35 -1 35 16 0 16 -26 19 -35 4z"/>
<path d="M4739 3879 c-11 -6 -11 -11 -2 -20 12 -12 43 -6 43 10 0 14 -25 20
-41 10z"/>
<path d="M5168 3831 c-28 -28 -47 -55 -43 -60 8 -14 51 -14 92 1 18 6 35 9 39
5 3 -3 -5 -26 -19 -51 -14 -26 -22 -46 -17 -46 4 0 29 17 55 39 55 46 92 67
101 58 4 -4 -8 -34 -26 -68 -28 -53 -30 -59 -12 -50 12 6 24 16 27 21 14 22
35 10 35 -20 0 -24 5 -31 27 -36 23 -6 32 -1 64 34 71 80 59 105 -88 173 -140
66 -169 66 -235 0z"/>
<path d="M5095 3839 c-4 -6 -5 -13 -2 -16 7 -7 27 6 27 18 0 12 -17 12 -25 -2z"/>
<path d="M4407 3833 c-13 -12 -7 -21 22 -33 29 -12 51 -8 51 10 0 4 -14 13
-31 19 -38 13 -34 13 -42 4z"/>
<path d="M4900 3824 c0 -9 7 -14 17 -12 25 5 28 28 4 28 -12 0 -21 -6 -21 -16z"/>
<path d="M5900 3805 c-10 -12 -9 -16 5 -21 19 -8 40 9 31 25 -10 15 -21 14
-36 -4z"/>
<path d="M5545 3799 c-4 -5 10 -16 29 -24 20 -9 36 -18 36 -21 0 -3 -13 -19
-30 -37 -30 -32 -33 -50 -4 -26 14 11 17 10 26 -5 8 -14 12 -15 25 -5 13 12
13 14 -1 25 -15 11 -15 13 -1 27 27 28 17 41 -49 67 -16 6 -27 6 -31 -1z"/>
<path d="M6085 3801 c-8 -14 2 -31 19 -31 6 0 17 -5 23 -11 16 -16 -5 -36 -36
-35 -13 1 -26 -5 -28 -11 -3 -8 3 -13 14 -13 10 0 25 -5 33 -10 12 -7 12 -12
2 -22 -17 -17 -15 -28 6 -28 10 0 23 -5 30 -12 9 -9 17 -6 37 12 29 27 32 40
8 40 -13 0 -14 3 -5 12 17 17 15 38 -5 38 -15 0 -15 2 2 14 20 14 24 11 -87
64 -3 2 -9 -2 -13 -7z"/>
<path d="M4907 3794 c-14 -14 -7 -25 13 -22 12 2 21 8 21 13 0 12 -24 18 -34
9z"/>
<path d="M6025 3779 c-4 -6 -19 -7 -36 -4 -22 5 -29 3 -29 -8 0 -9 6 -17 14
-19 13 -3 13 -6 1 -22 -12 -15 -17 -17 -29 -7 -16 13 -36 7 -36 -11 0 -6 -8
-17 -17 -24 -17 -12 -17 -13 0 -19 11 -5 25 -1 37 10 10 9 24 14 30 10 15 -9
62 35 56 51 -3 7 4 14 17 16 25 3 37 38 13 38 -8 0 -18 -5 -21 -11z"/>
<path d="M4446 3771 c-3 -5 0 -13 7 -19 15 -13 42 1 33 17 -9 13 -33 15 -40 2z"/>
<path d="M4391 3761 c-12 -8 -13 -12 -1 -26 11 -13 10 -19 -9 -39 -15 -16 -19
-26 -11 -31 8 -5 8 -10 0 -20 -12 -14 10 -31 70 -55 19 -8 41 -20 48 -27 20
-19 36 -16 62 12 18 19 21 28 12 37 -9 9 -16 8 -30 -5 -23 -21 -31 -21 -62 3
-22 17 -23 19 -7 25 26 11 20 33 -10 37 -22 2 -28 8 -26 26 2 12 -2 22 -7 22
-6 0 -8 11 -4 25 6 26 -1 31 -25 16z m39 -121 c0 -5 -5 -10 -11 -10 -5 0 -7 5
-4 10 3 6 8 10 11 10 2 0 4 -4 4 -10z"/>
<path d="M4970 3755 c-16 -20 8 -31 27 -13 13 14 13 16 0 21 -9 3 -21 0 -27
-8z"/>
<path d="M5036 3761 c-4 -7 -5 -15 -2 -18 9 -9 19 4 14 18 -4 11 -6 11 -12 0z"/>
<path d="M4332 3748 c-18 -18 -14 -28 8 -28 11 0 20 6 20 14 0 21 -15 27 -28
14z"/>
<path d="M4513 3730 c-5 -20 -23 -28 -23 -10 0 6 -9 10 -20 10 -28 0 -25 -24
5 -40 24 -13 28 -12 52 12 14 14 22 31 19 37 -11 17 -27 13 -33 -9z"/>
<path d="M5061 3719 c-32 -32 -47 -69 -38 -94 4 -8 57 -40 119 -71 146 -73
172 -74 235 -11 l46 45 -31 16 c-16 8 -32 21 -34 27 -3 8 -13 7 -35 -5 -31
-15 -63 -21 -63 -11 0 2 14 25 32 50 17 24 30 47 27 49 -2 2 -34 -18 -71 -45
-61 -44 -98 -60 -98 -43 0 4 14 29 30 56 36 58 36 61 6 47 -18 -8 -30 -7 -54
5 -39 20 -35 21 -71 -15z"/>
<path d="M6220 3725 c0 -9 10 -20 23 -25 17 -7 18 -9 5 -9 -20 -1 -25 -31 -5
-31 12 0 63 49 56 53 -57 32 -79 36 -79 12z"/>
<path d="M4582 3698 c7 -19 38 -22 38 -4 0 10 -9 16 -21 16 -12 0 -19 -5 -17
-12z"/>
<path d="M4274 3689 c-10 -17 13 -36 27 -22 12 12 4 33 -11 33 -5 0 -12 -5
-16 -11z"/>
<path d="M4527 3653 c-13 -12 -7 -23 13 -23 11 0 20 7 20 15 0 15 -21 21 -33
8z"/>
<path d="M5605 3652 c-5 -4 -16 -17 -23 -29 -10 -20 -10 -23 4 -23 11 0 14 -6
9 -20 -4 -14 -2 -20 9 -20 21 0 30 18 17 34 -8 10 -6 18 9 31 11 10 20 22 20
27 0 10 -31 10 -45 0z"/>
<path d="M6035 3634 c-12 -19 -14 -29 -6 -37 9 -9 18 -4 35 18 13 17 22 33 19
37 -9 16 -31 7 -48 -18z"/>
<path d="M5894 3635 c-4 -8 -12 -15 -20 -15 -8 0 -14 -7 -14 -15 0 -8 7 -15
15 -15 8 0 15 -4 15 -10 0 -10 -6 -12 -49 -14 -36 -2 -36 -21 -1 -36 28 -12
33 -11 56 11 15 14 35 23 48 21 30 -4 65 33 47 51 -10 9 -15 8 -26 -6 -9 -13
-20 -17 -35 -12 -16 5 -19 10 -11 18 6 6 11 17 11 24 0 18 -29 16 -36 -2z"/>
<path d="M5510 3625 c0 -8 6 -15 13 -16 6 0 2 -5 -10 -11 -13 -6 -23 -17 -23
-25 0 -7 10 -14 23 -14 16 -1 18 -2 5 -6 -19 -5 -24 -28 -9 -37 4 -3 21 6 37
20 27 23 28 26 12 38 -13 9 -14 16 -6 24 8 8 6 15 -5 26 -20 20 -37 20 -37 1z"/>
<path d="M5470 3599 c0 -5 5 -7 10 -4 6 3 10 8 10 11 0 2 -4 4 -10 4 -5 0 -10
-5 -10 -11z"/>
<path d="M4195 3587 c-124 -57 -120 -188 7 -212 81 -15 183 45 194 116 5 30 1
42 -23 69 -27 30 -37 34 -89 37 -36 2 -71 -2 -89 -10z m133 -43 c40 -26 25
-92 -28 -119 -41 -21 -92 -19 -124 6 -46 36 -30 89 37 120 44 20 76 18 115 -7z"/>
<path d="M4216 3519 c-45 -35 -29 -79 29 -79 43 0 81 40 66 68 -20 37 -56 41
-95 11z"/>
<path d="M4810 3585 c-9 -11 -16 -12 -26 -4 -13 11 -34 5 -34 -11 0 -5 13 -15
28 -23 27 -13 30 -12 50 10 12 14 22 29 22 34 0 14 -26 10 -40 -6z"/>
<path d="M5657 3593 c-13 -12 -7 -23 13 -23 11 0 20 7 20 15 0 15 -21 21 -33
8z"/>
<path d="M6026 3571 c-6 -9 25 -33 36 -28 2 1 -9 -10 -26 -25 -24 -23 -27 -30
-16 -43 8 -10 9 -15 1 -15 -6 0 -11 -7 -11 -15 0 -11 -8 -10 -37 7 -21 12 -40
23 -41 24 -2 1 11 16 30 33 29 26 31 30 15 36 -12 5 -25 -1 -42 -19 -17 -18
-31 -25 -44 -21 -10 3 -23 -1 -30 -9 -11 -13 -4 -19 41 -42 29 -14 64 -30 78
-34 25 -8 25 -8 2 -9 -14 -1 -22 -6 -20 -13 5 -16 48 -23 48 -9 0 6 12 21 27
35 20 19 24 28 15 38 -15 18 0 40 22 32 10 -4 26 3 42 20 25 24 25 26 8 33
-11 3 -21 10 -24 14 -9 12 -68 21 -74 10z"/>
<path d="M5430 3555 c-7 -8 -8 -15 -2 -15 5 0 15 7 22 15 7 8 8 15 2 15 -5 0
-15 -7 -22 -15z"/>
<path d="M5727 3563 c-12 -11 -7 -23 9 -23 12 0 14 -3 6 -13 -6 -7 -9 -25 -6
-40 4 -24 2 -27 -26 -27 -16 0 -30 5 -30 10 0 6 -9 10 -19 10 -11 0 -23 -4
-26 -10 -9 -15 -25 -12 -32 5 -3 9 2 22 12 29 20 15 14 49 -7 40 -7 -3 -26
-22 -43 -41 -27 -33 -28 -36 -12 -48 16 -12 17 -13 1 -19 -27 -11 -1 -30 27
-20 13 4 31 7 40 6 9 -2 21 4 28 11 9 12 18 11 58 -9 57 -29 73 -30 73 -4 0
11 -5 20 -12 20 -9 0 -9 3 0 12 7 7 24 12 39 13 14 0 28 6 31 14 4 11 -4 13
-37 7 -46 -7 -50 -2 -20 30 l20 22 -32 16 c-37 19 -34 18 -42 9z"/>
<path d="M4630 3550 c0 -5 -13 -7 -30 -3 -20 3 -30 1 -30 -6 0 -7 -11 -11 -26
-9 -31 3 -44 -19 -17 -29 10 -3 24 -11 32 -17 7 -6 29 -16 47 -22 29 -10 36
-9 43 3 7 13 12 13 41 -2 31 -16 35 -16 45 -1 7 9 17 16 23 16 18 0 23 17 8
29 -11 9 -18 8 -30 -5 -15 -15 -19 -15 -52 1 -26 12 -33 20 -25 28 17 17 13
27 -9 27 -11 0 -20 -4 -20 -10z"/>
<path d="M4967 3553 c-11 -10 -8 -23 4 -23 15 0 102 -42 110 -53 9 -12 61 -13
65 -2 3 10 -141 85 -162 85 -6 0 -14 -3 -17 -7z"/>
<path d="M5415 3500 c-3 -5 3 -15 13 -21 17 -11 15 -15 -24 -52 -35 -34 -41
-44 -31 -56 7 -8 -1 -5 -18 7 -16 12 -41 23 -54 24 -43 5 -32 -17 22 -42 44
-20 51 -27 39 -36 -15 -11 -9 -34 8 -34 16 0 55 63 42 68 -17 5 -15 15 9 41
14 14 27 20 40 16 13 -4 21 -1 26 11 4 10 2 19 -4 21 -6 2 -9 12 -6 22 3 11
-4 21 -22 29 -31 14 -32 15 -40 2z"/>
<path d="M4957 3483 c-13 -12 -7 -23 13 -23 11 0 20 7 20 15 0 15 -21 21 -33
8z"/>
<path d="M4802 3468 c-8 -8 -8 -15 -2 -23 16 -19 -27 -67 -52 -59 -14 4 -29
-2 -48 -21 l-29 -27 -45 22 c-42 20 -60 40 -36 40 16 0 12 20 -6 27 -15 5 -64
-32 -64 -49 0 -5 12 -13 28 -18 54 -20 73 -33 62 -44 -17 -17 -12 -21 50 -50
33 -15 60 -32 60 -36 0 -5 16 -14 35 -20 29 -9 34 -15 25 -25 -15 -18 -4 -36
15 -28 8 3 15 1 15 -4 0 -18 51 -35 66 -22 8 6 21 8 30 5 13 -5 14 -9 4 -21
-10 -13 -7 -17 24 -30 20 -9 42 -12 49 -8 7 4 19 6 29 5 21 -4 35 18 18 28 -8
5 -9 10 -2 14 6 4 9 13 5 21 -6 18 6 19 29 1 12 -9 14 -16 7 -23 -11 -11 -4
-33 9 -33 4 0 20 12 36 27 26 22 28 27 15 37 -17 12 -13 37 7 49 8 4 14 12 14
17 0 19 -25 10 -47 -17 -23 -26 -24 -26 -57 -11 -40 20 -73 7 -43 -16 16 -13
16 -14 -6 -29 -21 -13 -25 -13 -50 7 -21 17 -24 25 -15 34 8 8 8 15 -1 25 -16
20 13 45 33 28 11 -9 18 -6 35 18 12 16 21 32 21 35 0 14 -38 5 -44 -10 -5
-14 -9 -14 -22 -3 -13 11 -21 7 -55 -29 -42 -46 -46 -58 -26 -65 22 -8 -9 -30
-32 -22 -21 6 -29 25 -11 25 20 0 10 28 -12 35 -13 4 -25 8 -28 9 -3 1 -14 7
-25 14 -18 11 -18 12 8 6 21 -5 27 -3 27 10 0 9 -8 19 -17 22 -10 3 -33 13
-51 22 -31 16 -32 17 -10 26 13 5 34 10 48 10 14 1 24 6 23 14 -4 17 7 15 41
-7 28 -19 56 -18 56 0 0 5 -17 16 -37 25 -35 14 -37 16 -20 29 18 13 18 14 1
23 -14 8 -16 13 -6 24 19 24 -4 38 -26 16z m-122 -168 c0 -5 -5 -10 -11 -10
-5 0 -7 5 -4 10 3 6 8 10 11 10 2 0 4 -4 4 -10z m30 -20 c0 -5 -2 -10 -4 -10
-3 0 -8 5 -11 10 -3 6 -1 10 4 10 6 0 11 -4 11 -10z m30 -4 c0 -3 -4 -8 -10
-11 -5 -3 -10 -1 -10 4 0 6 5 11 10 11 6 0 10 -2 10 -4z"/>
<path d="M4473 3436 c-15 -18 -26 -23 -46 -19 -20 4 -27 1 -27 -11 0 -9 5 -16
11 -16 20 0 39 -33 27 -48 -8 -9 -14 -9 -25 -1 -11 9 -19 7 -38 -11 -14 -13
-25 -27 -25 -32 0 -9 78 -48 97 -48 7 0 13 5 13 10 0 6 10 8 24 4 17 -4 27 0
34 12 8 15 13 16 26 5 15 -13 36 -8 36 10 0 17 -53 32 -72 20 -10 -6 -23 -11
-29 -11 -13 0 -2 39 18 62 13 14 12 17 -4 26 -16 10 -16 12 10 32 27 22 28 40
2 40 -7 0 -22 -11 -32 -24z"/>
<path d="M5210 3435 c-10 -12 -9 -16 3 -21 17 -6 37 2 37 16 0 15 -29 19 -40
5z"/>
<path d="M4615 3429 c-4 -6 2 -13 14 -16 12 -3 21 -9 21 -14 0 -5 9 -9 20 -9
28 0 25 25 -5 38 -32 15 -42 15 -50 1z"/>
<path d="M5131 3405 c-24 -26 -57 -26 -72 -2 -8 11 -39 2 -39 -11 0 -5 12 -14
26 -20 20 -10 24 -17 18 -35 -4 -12 -14 -27 -23 -34 -14 -11 -13 -13 8 -19 22
-7 23 -8 6 -20 -16 -12 -13 -34 5 -34 5 0 21 12 35 28 23 25 24 28 8 39 -24
18 -7 28 42 24 19 -2 19 -2 1 -16 -20 -15 -12 -40 10 -31 8 3 14 1 14 -4 0 -6
6 -10 13 -10 6 0 21 -7 32 -16 16 -12 17 -16 6 -23 -8 -5 -11 -16 -8 -24 4
-11 1 -14 -9 -10 -15 5 -54 -22 -54 -39 0 -11 37 -10 45 2 10 16 35 -1 32 -22
-2 -24 12 -32 33 -18 13 9 13 12 -2 24 -13 9 -14 16 -6 24 8 8 8 15 -1 26 -15
18 3 32 37 27 14 -1 22 3 22 12 0 8 7 17 15 21 8 3 15 10 15 16 0 16 -37 12
-44 -5 -4 -13 -10 -12 -38 3 -18 9 -35 18 -38 20 -2 2 2 7 10 12 13 8 12 11
-3 22 -17 13 -17 15 6 40 22 24 23 29 10 40 -12 10 -17 9 -27 -3 -6 -8 -19
-13 -28 -11 -20 4 -24 17 -8 27 16 10 12 25 -7 25 -10 0 -29 -12 -42 -25z"/>
<path d="M5620 3396 c0 -8 5 -18 10 -21 8 -5 8 -11 0 -20 -8 -10 -3 -17 22
-29 28 -14 34 -15 46 -2 12 11 19 12 34 3 16 -10 22 -9 33 7 9 12 20 16 31 12
13 -5 15 -9 6 -18 -18 -18 -15 -25 18 -42 30 -14 32 -14 57 14 20 22 32 28 49
24 18 -5 24 -2 24 10 0 9 -5 16 -11 16 -8 0 -7 5 1 15 7 9 11 17 9 18 -34 23
-61 29 -72 18 -9 -9 -9 -14 3 -21 8 -5 19 -6 25 -4 5 3 -1 -4 -14 -15 -28 -25
-35 -26 -51 -6 -7 8 -21 15 -31 15 -10 0 -21 5 -24 10 -10 16 -35 12 -35 -6 0
-11 -6 -14 -20 -9 -12 4 -27 1 -35 -5 -21 -17 -45 -5 -42 22 1 14 -4 23 -15
26 -11 2 -18 -3 -18 -12z"/>
<path d="M5562 3388 c-19 -19 -14 -30 11 -26 12 2 22 9 22 17 0 19 -18 24 -33
9z"/>
<path d="M4907 3373 c-12 -11 -8 -23 8 -23 8 0 15 -4 15 -10 0 -5 -4 -10 -10
-10 -5 0 -10 -7 -10 -15 0 -25 36 -17 51 11 12 23 12 27 -6 40 -20 15 -38 18
-48 7z"/>
<path d="M5500 3365 c0 -10 7 -15 18 -13 21 4 19 22 -2 26 -10 2 -16 -3 -16
-13z"/>
<path d="M5564 3339 c-11 -18 13 -34 31 -19 8 7 15 16 15 21 0 13 -38 11 -46
-2z"/>
<path d="M5254 3329 c-9 -15 11 -33 30 -26 9 4 13 13 10 22 -7 17 -30 20 -40
4z"/>
<path d="M5496 3315 c-22 -21 -25 -29 -16 -40 16 -19 3 -37 -22 -29 -15 5 -30
-6 -66 -47 -26 -29 -59 -66 -75 -82 -15 -15 -25 -32 -22 -38 4 -5 1 -9 -5 -9
-7 0 -19 -9 -28 -19 -10 -11 -28 -23 -42 -27 -23 -6 -24 -5 -10 11 13 15 12
19 -5 32 -40 29 -63 27 -92 -8 -16 -17 -31 -37 -34 -42 -4 -6 -28 1 -60 17
-63 31 -69 32 -69 8 0 -11 12 -22 31 -29 27 -11 30 -15 19 -28 -7 -8 -11 -17
-9 -18 34 -23 60 -29 73 -18 8 7 25 9 40 5 20 -5 26 -2 26 10 0 19 5 20 30 6
18 -10 18 -11 -6 -37 -30 -32 -30 -35 3 -51 20 -9 30 -9 37 -1 8 8 7 13 -1 16
-18 7 -16 14 12 47 25 29 26 29 60 13 31 -15 35 -15 43 -1 6 11 16 14 31 9 28
-9 27 -23 -5 -50 l-27 -23 38 -18 c35 -16 38 -16 50 -1 7 10 23 16 35 15 13
-2 25 3 27 10 3 6 0 12 -6 12 -5 0 -22 5 -37 10 l-26 10 33 35 c25 25 40 33
55 29 28 -7 40 11 17 25 -17 10 -16 13 10 34 30 26 34 37 12 37 -18 0 -19 12
-3 28 9 9 7 13 -6 18 -11 4 -21 2 -26 -6 -12 -20 -52 -2 -45 20 4 12 -1 23
-12 30 -16 10 -16 11 4 7 12 -3 28 1 34 9 10 13 14 12 29 -1 9 -8 31 -18 48
-21 43 -9 44 16 2 35 -26 11 -29 15 -18 28 10 12 9 17 -5 28 -15 11 -15 14 8
35 22 21 25 40 6 40 -5 0 -20 -11 -35 -25z m-96 -165 c0 -5 -5 -10 -11 -10 -5
0 -7 5 -4 10 3 6 8 10 11 10 2 0 4 -4 4 -10z m-8 -39 c4 -1 26 -10 48 -20 35
-16 39 -20 25 -31 -12 -10 -13 -15 -3 -28 11 -13 10 -14 -9 -8 -16 5 -26 0
-40 -20 -19 -26 -20 -26 -54 -10 -19 9 -43 23 -54 31 -19 15 -19 15 3 31 12 8
22 21 22 28 0 8 7 17 16 20 8 3 12 11 8 17 -4 8 -1 8 12 1 11 -6 22 -11 26
-11z m-202 -65 c0 -3 -4 -8 -10 -11 -5 -3 -10 -1 -10 4 0 6 5 11 10 11 6 0 10
-2 10 -4z m200 -140 c0 -2 -7 -7 -16 -10 -8 -3 -12 -2 -9 4 6 10 25 14 25 6z"/>
<path d="M5365 3059 c-8 -12 14 -31 30 -26 6 2 10 10 10 18 0 17 -31 24 -40 8z"/>
<path d="M4854 3309 c-9 -16 18 -30 33 -17 7 6 10 14 7 19 -7 13 -31 11 -40
-2z"/>
<path d="M5712 3278 c-18 -18 -15 -28 7 -28 26 0 34 15 18 29 -10 8 -17 7 -25
-1z"/>
<path d="M5647 3264 c-14 -14 -7 -25 13 -22 12 2 21 8 21 13 0 12 -24 18 -34
9z"/>
<path d="M5584 3249 c-3 -6 -1 -16 4 -21 13 -13 45 8 36 23 -7 12 -31 11 -40
-2z"/>
<path d="M5775 3240 c-3 -5 -3 -14 0 -20 3 -5 0 -7 -8 -4 -8 3 -21 -5 -29 -18
-30 -44 -75 -88 -91 -88 -20 0 -31 16 -17 25 14 8 13 35 -1 35 -12 0 -89 -73
-89 -84 0 -10 35 -7 47 5 9 9 21 6 48 -11 27 -17 33 -25 23 -31 -10 -7 -10
-11 0 -21 10 -10 22 -3 62 40 28 30 50 56 50 58 0 2 15 17 33 33 l32 30 -23 8
c-21 8 -22 11 -8 22 9 7 13 17 10 22 -7 12 -31 11 -39 -1z m5 -60 c0 -5 -4
-10 -10 -10 -5 0 -10 5 -10 10 0 6 5 10 10 10 6 0 10 -4 10 -10z m-30 -30 c0
-5 -2 -10 -4 -10 -3 0 -8 5 -11 10 -3 6 -1 10 4 10 6 0 11 -4 11 -10z"/>
<path d="M4529 3224 c-6 -8 -10 -15 -8 -17 39 -22 51 -27 59 -22 16 10 12 22
-14 38 -21 14 -26 15 -37 1z"/>
<path d="M4617 3224 c-13 -13 -7 -24 14 -24 11 0 19 5 17 12 -5 14 -22 21 -31
12z"/>
<path d="M4704 3212 c-6 -4 -13 -15 -17 -24 -7 -21 -33 -24 -40 -5 -3 9 -9 8
-22 -5 -17 -15 -16 -17 14 -32 17 -9 31 -13 31 -9 0 4 6 -1 13 -11 15 -20 37
-14 55 15 9 15 10 24 3 33 -6 7 -9 15 -6 18 9 9 -20 27 -31 20z m6 -62 c0 -5
-5 -10 -11 -10 -5 0 -7 5 -4 10 3 6 8 10 11 10 2 0 4 -4 4 -10z"/>
<path d="M2410 3084 c-22 -20 -40 -41 -40 -46 0 -6 21 9 46 32 38 35 51 41 75
36 34 -6 109 -52 109 -66 0 -15 -71 -91 -105 -112 -23 -14 -26 -18 -11 -18 27
0 139 114 134 137 -4 24 -95 72 -135 73 -24 0 -44 -10 -73 -36z"/>
<path d="M4761 3107 c-16 -16 -13 -27 7 -27 10 0 23 -5 29 -11 12 -12 33 -4
33 11 0 16 -57 39 -69 27z"/>
<path d="M4850 3100 c-13 -9 -13 -11 0 -20 19 -13 34 -8 38 13 4 19 -15 22
-38 7z"/>
<path d="M5563 3063 c-7 -3 -13 -11 -13 -18 0 -7 -7 -15 -15 -19 -24 -9 -18
-20 18 -34 17 -7 39 -17 49 -22 11 -6 20 -4 28 5 10 12 6 18 -25 30 -31 13
-35 18 -24 31 14 17 2 34 -18 27z"/>
<path d="M2436 3038 c-31 -44 30 -86 79 -54 45 30 26 76 -31 76 -22 0 -38 -7
-48 -22z m68 6 c23 -9 20 -41 -4 -54 -42 -23 -80 16 -48 48 13 13 28 15 52 6z"/>
<path d="M4854 3049 c-9 -16 18 -30 33 -17 7 6 13 14 13 19 0 13 -38 11 -46
-2z"/>
<path d="M5477 2966 c-8 -21 16 -39 31 -24 8 8 9 15 1 25 -15 17 -25 17 -32
-1z"/>
<path d="M2646 2915 c-9 -19 -25 -39 -38 -44 -19 -8 -20 -10 -7 -16 18 -7 129
50 129 66 0 13 -7 11 -36 -8 -25 -16 -25 -16 -18 10 9 40 -13 34 -30 -8z"/>
<path d="M5487 2919 c-21 -12 -13 -29 13 -29 10 0 20 -6 23 -12 3 -10 9 -9 22
4 17 15 16 17 -12 31 -20 11 -34 12 -46 6z"/>
<path d="M5223 2903 c-4 -10 -1 -19 6 -21 9 -3 9 -7 1 -17 -8 -10 -4 -17 21
-29 17 -9 35 -14 39 -11 4 3 10 -2 14 -10 6 -17 36 -9 36 10 0 7 -12 16 -26
19 -19 5 -24 11 -19 25 4 13 -2 24 -19 35 -32 20 -45 20 -53 -1z m57 -37 c0
-3 -4 -8 -10 -11 -5 -3 -10 -1 -10 4 0 6 5 11 10 11 6 0 10 -2 10 -4z"/>
<path d="M2717 2881 c-15 -16 -27 -32 -27 -35 0 -13 28 -5 45 14 28 31 51 26
26 -6 -12 -15 -21 -31 -21 -35 0 -19 19 -8 44 26 l26 34 -29 16 c-37 19 -31
20 -64 -14z"/>
<path d="M2799 2834 l-24 -26 24 -19 c14 -12 18 -19 9 -19 -8 0 -19 5 -26 12
-17 17 -28 2 -12 -17 22 -27 56 -17 95 26 l38 42 -24 13 c-35 20 -53 17 -80
-12z m61 -3 c0 -15 -28 -33 -40 -26 -8 5 -8 11 1 21 13 15 39 19 39 5z"/>
<path d="M5465 2840 c-3 -5 -4 -14 0 -20 8 -13 35 -1 35 16 0 16 -26 19 -35 4z"/>
<path d="M5382 2811 c-19 -26 -19 -30 -5 -35 17 -7 66 42 56 56 -9 16 -30 7
-51 -21z"/>
<path d="M2932 2767 c-34 -36 -27 -53 9 -23 17 14 35 24 40 20 5 -3 14 -2 20
2 8 4 7 9 -2 15 -23 15 -45 10 -67 -14z"/>
<path d="M2868 2753 c7 -3 16 -2 19 1 4 3 -2 6 -13 5 -11 0 -14 -3 -6 -6z"/>
<path d="M8799 5783 c-13 -16 -12 -17 4 -4 16 13 21 21 13 21 -2 0 -10 -8 -17
-17z"/>
<path d="M9378 5803 c7 -3 16 -2 19 1 4 3 -2 6 -13 5 -11 0 -14 -3 -6 -6z"/>
<path d="M6550 7835 c-7 -9 -11 -17 -9 -20 3 -2 10 5 17 15 14 24 10 26 -8 5z"/>
</g>
</svg>
